<?xml version="1.0" encoding="UTF-8"?>
<svg width="192px" height="192px" viewBox="0 0 192 192" version="1.1" xmlns="http://www.w3.org/2000/svg" xmlns:xlink="http://www.w3.org/1999/xlink">
    <title>favicon</title>
    <defs>
        <filter color-interpolation-filters="auto" id="filter-1">
            <feColorMatrix in="SourceGraphic" type="matrix" values="0 0 0 0 0.988235 0 0 0 0 0.960784 0 0 0 0 0.933333 0 0 0 1.000000 0"></feColorMatrix>
        </filter>
        <filter color-interpolation-filters="auto" id="filter-2">
            <feColorMatrix in="SourceGraphic" type="matrix" values="0 0 0 0 0.988235 0 0 0 0 0.960784 0 0 0 0 0.933333 0 0 0 1.000000 0"></feColorMatrix>
        </filter>
    </defs>
    <g id="favicon" stroke="none" stroke-width="1" fill="none" fill-rule="evenodd">
        <g id="linc---clip---green" transform="translate(22.000000, 6.000000)">
            <g id="linc---c" transform="translate(0.000000, 51.043973)" filter="url(#filter-1)">
                <g>
                    <path d="M38.295442,5.06724303 C49.8099955,0.179605058 61.3891521,-1.17223374 73.0329118,1.01172663 C84.3855775,3.14108799 94.1499879,8.2217691 102.326143,16.25377 L102.951945,16.8774373 L82.498297,38.2828458 L81.9762525,37.7637294 C77.2621499,33.1555591 72.1240737,30.2720819 66.562024,29.1132978 C60.7939725,27.9115957 54.895552,28.5902793 48.8667625,31.1493486 C40.4534879,34.7205718 34.6624605,40.6194618 31.4936804,48.8460187 C28.3249002,57.0725755 28.9533163,66.3988985 33.3789285,76.8249875 C37.8168342,87.280038 44.0919122,94.217328 52.2041627,97.6368575 C60.3164132,101.056387 68.5791757,100.98054 76.9924504,97.4093169 C83.0212399,94.8502476 87.6101606,91.0865759 90.7592127,86.1183019 C93.5584685,81.701903 95.0557867,76.5327578 95.2511674,70.610866 L124.837287,70.6112893 C124.585717,81.6064609 121.420378,91.7581814 115.34127,101.066451 C108.868537,110.977434 99.9050615,118.363939 88.4508441,123.225966 C76.8663007,128.143313 65.7156638,129.895733 54.9989335,128.483226 C44.2822033,127.070719 34.6953639,122.928446 26.2384155,116.056407 C17.7814671,109.184368 11.0943194,99.9560763 6.1769725,88.3715328 C1.27191892,76.8159508 -0.711855185,65.6168305 0.225650176,54.774172 C1.16315554,43.9315136 4.84636132,34.1656975 11.2752675,25.4767239 C17.7041737,16.7877503 26.7108986,9.98458997 38.295442,5.06724303 Z" id="c" fill="#333333" fill-rule="nonzero"></path>
                </g>
            </g>
            <g id="linc---link" transform="translate(41.050368, 0.000000)" filter="url(#filter-2)">
                <g>
                    <path d="M60.8397388,0.575663906 L61.700954,0.714289796 L62.534511,0.862266665 L63.3899885,1.02815106 C71.0562697,2.58074999 77.8321582,5.74412563 83.8037014,10.5597638 L84.4639005,11.1016363 L84.9772216,11.5387558 L87.4753721,13.9111235 L88.1188746,14.5328402 L88.7654089,15.1784809 C93.6891689,20.1794751 97.8537162,26.3556403 101.248517,33.7262079 L101.686951,34.6943615 L102.107589,35.655059 L102.518392,36.6263349 C105.607196,44.0633938 107.300399,51.2846382 107.614338,58.3008767 L107.647466,59.2148766 L107.718143,61.7856775 L107.690238,62.7952148 C107.478823,68.4882526 106.321498,73.9503254 104.216971,79.1608506 C103.329419,81.3842315 102.28186,83.525824 101.063116,85.6092622 L100.530284,86.4986727 L100.015404,87.3313685 L99.5726939,88.0229163 L99.0959632,88.7419118 C93.9537148,96.3558105 86.9825218,102.197925 78.0798434,106.322723 L77.2395555,106.704393 L76.288782,107.121113 L75.2749489,107.579093 L74.4691853,107.930726 L73.626968,108.283791 C64.6426035,111.969491 55.6341665,113.085012 46.4803498,111.652925 L45.6217499,111.511204 L44.695972,111.342594 L43.6805869,111.143923 L42.7043967,110.931988 C41.0809491,110.561768 39.4760217,110.106762 37.902208,109.569727 L36.9617542,109.237685 L35.9450939,108.856949 L35.0764122,108.512492 C30.4650633,106.631825 26.1993121,104.053862 22.2633414,100.76288 L21.4418817,100.062102 L19.6816247,98.3807333 L19.0362748,97.7562244 L18.3891664,97.1089683 C16.7908568,95.483003 15.272181,93.7330743 13.8335078,91.8585384 C17.1727761,90.7056515 20.245173,90.4869181 23.2300447,91.1087791 C25.5250115,91.586907 27.7579348,92.5794033 29.9689438,94.1574534 L30.4788059,94.5320457 C33.3803554,96.7156626 36.4836823,98.4687305 39.7996186,99.7988196 C50.2591772,103.99436 61.0949459,103.935077 71.6813704,99.6605558 L72.6771598,99.2465143 L72.9312917,99.1305292 C83.6837755,94.1173893 91.2569764,85.9733458 95.2397698,75.115274 C96.727768,71.0586257 97.5478696,66.8192018 97.6998898,62.4412222 L97.7225201,61.4201577 L97.7215222,60.5267391 L97.6987951,59.3991823 C97.4652624,52.7159153 95.7264294,45.8299957 92.574812,38.7513471 L92.1601609,37.8375743 C89.3160015,31.6971014 85.8919014,26.5272335 81.8160243,22.3004387 L81.1110366,21.5852761 L80.333268,20.901197 L80.1449197,20.7189327 L79.8033765,20.3743601 C79.383049,19.9582401 78.9751149,19.5835744 78.509768,19.1890418 L77.9193258,18.7021419 L77.5950593,18.4441812 L77.5950593,18.4441812 L76.8716818,17.8845215 C73.9338389,15.6445122 70.7554918,13.8325258 67.3571254,12.4640579 C56.8015533,8.21349766 45.8749242,8.3018086 35.2138028,12.6699164 L34.3720907,13.0235821 L34.1295508,13.1363467 C23.4428194,18.1198403 15.8714253,26.2778353 11.8978223,37.1561305 C11.4772567,38.3074878 11.1100867,39.4737183 10.7964304,40.6538104 C7.18425513,41.2081087 3.58341274,42.0506028 0,43.1799679 C1.012314,36.8245115 3.32187281,30.8139897 6.95076034,25.0906465 C12.2505204,16.732067 19.5851347,10.4023857 29.1120577,5.99512732 L29.9340236,5.62206781 L30.8845775,5.20647021 L31.8620793,4.7636421 L32.6814295,4.40705044 L33.5318105,4.05026114 C42.3185878,0.441455175 51.0914755,-0.749116768 59.9792669,0.451964944 L60.8397388,0.575663906 Z" id="link" fill="#333333" fill-rule="nonzero"></path>
                </g>
            </g>
        </g>
    </g>
</svg>