<?xml version="1.0" encoding="UTF-8"?>
<svg width="64px" height="64px" viewBox="0 0 64 64" version="1.1" xmlns="http://www.w3.org/2000/svg" xmlns:xlink="http://www.w3.org/1999/xlink">
    <title>linc-logo--link</title>
    <g id="linc-logo--link" stroke="none" stroke-width="1" fill="none" fill-rule="evenodd">
        <path d="M19.8033801,20.6291762 C23.6530602,19.0064583 27.5243393,18.5576418 31.4172172,19.2827265 C35.2127732,19.989684 38.4773251,21.676493 41.2108728,24.3431534 L41.4200984,24.5502138 L34.5817955,31.6569058 L34.4072595,31.4845568 C32.8311856,29.9546235 31.1133639,28.9972961 29.2537944,28.6125745 C27.3253519,28.2136041 25.353323,28.4389301 23.3377076,29.2885526 C20.5248832,30.4742148 18.5887592,32.4326728 17.5293356,35.1639267 C16.4699119,37.8951806 16.6800113,40.9915618 18.1596338,44.4530703 C19.6433663,47.9241941 21.7413238,50.2274056 24.4535062,51.3627048 C27.1656887,52.498004 29.9281921,52.4728225 32.7410165,51.2871603 C34.7566319,50.4375377 36.2908536,49.1879818 37.3436815,47.5384925 C38.2795614,46.0722282 38.7801624,44.3560487 38.8454843,42.389954 L48.7370618,42.3900945 C48.6529541,46.040541 47.5946809,49.4109579 45.5622422,52.5013452 C43.3982024,55.7918363 40.4014286,58.2441892 36.5719207,59.8584039 C32.6988407,61.4909852 28.9708293,62.0727966 25.3878867,61.6038379 C21.8049441,61.1348793 18.5997598,59.759626 15.772334,57.4780781 C12.9449081,55.1965301 10.7091826,52.1326959 9.06515769,48.2865753 C7.42524281,44.45007 6.76200425,40.7319117 7.07544201,37.1321003 C7.38887976,33.5322889 8.6202922,30.289994 10.7696793,27.4052157 C12.9190664,24.5204373 15.9303,22.2617575 19.8033801,20.6291762 Z" id="c" fill="#4EB872" fill-rule="nonzero"></path>
        <path d="M41.0650922,2.19112301 L41.3530238,2.23714743 L41.6317083,2.28627641 L41.9177215,2.34135078 C44.4808023,2.85682061 46.7461966,3.90707556 48.7426728,5.50588911 L48.9633983,5.6857932 L49.1350178,5.83091886 L49.9702287,6.61855562 L50.185372,6.82496836 L50.4015289,7.03932398 C52.0476979,8.69967657 53.4400381,10.7501912 54.5750275,13.1972528 L54.7216099,13.5186842 L54.8622425,13.83764 L54.9995871,14.160108 C56.0322721,16.6292451 56.5983634,19.0267307 56.7033233,21.3561535 L56.714399,21.6596055 L56.7380285,22.513123 L56.7286992,22.8482939 C56.6580162,24.7384081 56.2710859,26.5518409 55.5674758,28.2817587 C55.2707391,29.0199311 54.9205069,29.7309495 54.5130421,30.4226603 L54.3348994,30.7179486 L54.1627589,30.9944074 L54.0147468,31.2240044 L53.8553606,31.4627141 C52.136144,33.9905628 49.8054532,35.9301709 46.8290056,37.2996226 L46.5480708,37.4263388 L46.2301971,37.5646915 L45.8912405,37.7167429 L45.6218482,37.8334868 L45.3402683,37.9507059 C42.3365104,39.174375 39.3247044,39.5447328 36.2642934,39.0692736 L35.9772362,39.0222216 L35.6677193,38.9662425 L35.3282439,38.9002826 L35.0018726,38.8299191 C34.4591026,38.7070046 33.9225245,38.5559406 33.3963487,38.3776426 L33.0819251,38.267403 L32.7420234,38.1409971 L32.4515956,38.0266357 C30.9098755,37.4022459 29.4836997,36.5463506 28.1677799,35.4537296 L27.8931399,35.2210681 L27.3046301,34.6628462 L27.0888692,34.4555065 L26.8725204,34.2406145 C26.3381548,33.7007867 25.8304134,33.1198025 25.3494193,32.4974482 C26.4658426,32.1146845 27.4930422,32.0420641 28.4909794,32.2485247 C29.2582596,32.4072653 30.0047966,32.7367786 30.744007,33.2606983 L30.91447,33.3850646 C31.88455,34.1100353 32.9220906,34.6920617 34.0307132,35.1336573 C37.5276751,36.5265955 41.150416,36.5069135 44.6897933,35.0877531 L45.0227173,34.9502894 L45.1076816,34.9117818 C48.7025778,33.2473968 51.2345389,30.5435377 52.5661129,26.938609 C53.0635979,25.5917836 53.3377839,24.1842757 53.388609,22.7307668 L53.3961751,22.3917688 L53.3958414,22.0951498 L53.388243,21.7207959 C53.3101656,19.5019211 52.7288187,17.2157648 51.6751331,14.8656216 L51.5365021,14.562245 C50.5856094,12.5235803 49.4408242,10.8071609 48.0781293,9.403846 L47.8424296,9.16640881 L47.5823969,8.93929149 L47.5194261,8.87877891 L47.4052374,8.76437927 C47.2647086,8.62622553 47.1283233,8.50183484 46.972743,8.37084823 L46.7753395,8.20919527 L46.6669269,8.12355119 L46.6669269,8.12355119 L46.4250789,7.93774164 C45.4428649,7.19404846 44.3802428,6.59246081 43.2440611,6.13812332 C39.7149988,4.72691819 36.0618804,4.75623782 32.4975296,6.20646927 L32.2161186,6.32388788 L32.1350298,6.36132622 C28.5621168,8.01586855 26.0307597,10.7243596 24.7022583,14.3360025 C24.5616499,14.7182583 24.4388933,15.1054521 24.3340281,15.497248 C23.1263634,15.6812775 21.9224877,15.9609894 20.7244392,16.3359437 C21.0628878,14.2259036 21.8350466,12.2303833 23.0482987,10.3302076 C24.8201764,7.55512155 27.2723705,5.45363886 30.4575228,3.99040925 L30.7323321,3.86655182 L31.0501324,3.72857154 L31.3769422,3.58155062 L31.650877,3.46316058 L31.9351863,3.34470493 C34.8728844,2.14656511 37.8059388,1.75128986 40.7774092,2.1500544 L41.0650922,2.19112301 Z" id="link" fill="#2F513A" fill-rule="nonzero"></path>
    </g>
</svg>