<?xml version="1.0" encoding="UTF-8"?>
<svg width="175px" height="175px" viewBox="0 0 175 175" version="1.1" xmlns="http://www.w3.org/2000/svg" xmlns:xlink="http://www.w3.org/1999/xlink">
    <title>linc-logo--bg</title>
    <g id="linc-logo--bg" stroke="none" stroke-width="1" fill="none" fill-rule="evenodd">
        <path d="M87.5,0 C135.824916,0 175,39.1750844 175,87.5 C175,135.824916 135.824916,175 87.5,175 C39.1750844,175 0,135.824916 0,87.5 C0,39.1750844 39.1750844,0 87.5,0 Z M34.9496146,58 L24.5,58 L24.5,109.042957 L24.505018,109.502492 C24.5551982,111.774821 24.9817299,113.666938 25.7846132,115.178845 C26.641022,116.791545 27.7955086,117.998246 29.2480731,118.798948 C30.7006375,119.599649 32.33281,120 34.1445904,120 C35.108526,120 36.0591398,119.936688 36.9964316,119.810063 C37.9337235,119.683438 38.7682463,119.49303 39.5,119.238839 L39.5,119.238839 L39.5,110.295554 L39.1931549,110.288773 C38.0812673,110.239043 37.1147033,109.915797 36.2934627,109.319037 C35.397564,108.668026 34.9496146,107.348822 34.9496146,105.361425 L34.9496146,105.361425 L34.9496146,58 Z M135.826117,73.8648165 C131.6289,73.0773065 127.45497,73.5647634 123.304328,75.3271872 C119.128457,77.1003236 115.88181,79.5534618 113.564387,82.6866017 C111.246964,85.8197416 109.919282,89.341178 109.58134,93.2509109 C109.243398,97.1606437 109.958488,101.198912 111.726608,105.365717 C113.499161,109.542965 115.909672,112.870576 118.958141,115.348551 C122.006611,117.826526 125.462371,119.32018 129.325423,119.829513 C133.188474,120.338847 137.207936,119.706945 141.383807,117.933808 C145.5127,116.18062 148.743757,113.517134 151.076978,109.943353 C153.26831,106.586902 154.409317,102.926313 154.5,98.9615858 L154.5,98.9615858 L143.835114,98.9614332 C143.764686,101.096796 143.224949,102.960728 142.215903,104.553229 C141.080767,106.344729 139.426602,107.701864 137.253409,108.624634 C134.220682,109.912374 131.242211,109.939724 128.317994,108.706682 C125.393777,107.473641 123.131805,104.972137 121.532076,101.202171 C119.936779,97.4426481 119.710255,94.0796876 120.852503,91.1132897 C121.99475,88.1468918 124.082237,86.0198226 127.114964,84.7320823 C129.288157,83.8093125 131.414356,83.5645873 133.493561,83.9979067 C135.498509,84.4157504 137.350627,85.4554978 139.049916,87.1171488 L139.049916,87.1171488 L139.238097,87.304336 L146.611008,79.5858019 L146.385425,79.3609149 C143.438173,76.4646715 139.918404,74.6326387 135.826117,73.8648165 Z M56,75.5 L45.5,75.5 L45.5,119.5 L56,119.5 L56,75.5 Z M91.2205062,74.5 C88.7685304,74.5 86.3928214,74.8753756 84.0933791,75.6261268 C81.7939368,76.3768781 79.6343963,77.4309346 77.6147576,78.7882966 C76.6049383,79.4669776 75.6399852,80.2089841 74.7198985,81.0143162 L74.7198985,81.0143162 L74.5321855,81.181232 L72.985128,75.4733004 L65,75.4733004 L65,119.5 L75.6149006,119.5 L75.6146648,90.5669838 L75.7496782,90.4143765 L76.0692713,90.0709452 C76.5039351,89.6175518 76.9727581,89.1822182 77.4757402,88.7649445 L77.4757402,88.7649445 L77.7484627,88.5431326 L78.1538504,88.2291274 C79.5183003,87.2028341 81.014326,86.3804492 82.6419276,85.7619726 C84.4322894,85.0816483 86.1892845,84.7414862 87.9129129,84.7414862 C89.7213881,84.7414862 91.2519663,85.2349443 92.5046475,86.2218605 C93.7072215,87.1693001 94.33256,89.0033484 94.3806629,91.7240055 L94.3806629,91.7240055 L94.3836694,92.0687054 L94.3836694,119.5 L105,119.5 L105,93.0363716 L104.993431,92.1605355 C104.962775,90.1241331 104.824825,88.1382364 104.57958,86.2028452 C104.299299,83.9909697 103.707994,82.0075122 102.805663,80.2524728 C101.903332,78.4974333 100.527909,77.099928 98.6793937,76.0599568 C96.8308785,75.0199856 94.3445827,74.5 91.2205062,74.5 Z M145.715854,55.1630608 C142.497975,54.7297322 139.321699,55.159269 136.140393,56.4612609 L136.140393,56.4612609 L135.832508,56.589984 L135.535857,56.7186358 L135.181947,56.8784002 L134.837793,57.0283402 L134.540195,57.1629334 C131.090916,58.7529924 128.435374,61.0366268 126.516564,64.0522509 C125.202704,66.1171294 124.366514,68.2856169 124,70.5785504 C125.297396,70.1710959 126.601103,69.8671393 127.908912,69.6671586 C128.022474,69.2414027 128.15541,68.8206478 128.307678,68.405259 C129.746345,64.4805671 132.487613,61.5373102 136.356809,59.739356 L136.356809,59.739356 L136.444622,59.6986726 L136.749369,59.5710764 C140.609292,57.9951422 144.565343,57.9632812 148.387051,59.4968064 C149.61745,59.9905248 150.76819,60.6442567 151.831854,61.4524115 L151.831854,61.4524115 L152.093757,61.6543266 L152.211159,61.7473941 L152.424933,61.9230588 C152.593414,62.065399 152.741109,62.2005716 152.893291,62.3507002 L152.893291,62.3507002 L153.016949,62.4750157 L153.085142,62.5407734 L153.366738,62.7875767 L153.621983,63.0455944 C155.097678,64.5705454 156.337394,66.4357401 157.367139,68.6511116 L157.367139,68.6511116 L157.517266,68.9807842 C158.658328,71.5346325 159.287883,74.0189476 159.372435,76.4301492 L159.372435,76.4301492 L159.380664,76.8369513 L159.381025,77.1592806 L159.372831,77.5276621 C159.317792,79.1071579 159.020869,80.6366653 158.48213,82.1002305 C157.040136,86.0176262 154.298213,88.9558496 150.405212,90.7644997 L150.405212,90.7644997 L150.313202,90.806345 L149.95267,90.9557237 C146.119792,92.4978937 142.196637,92.5192817 138.409691,91.0056067 C137.209136,90.5257347 136.085558,89.8932596 135.035035,89.1054501 L135.035035,89.1054501 L134.850436,88.970304 C134.049927,88.4009721 133.241484,88.0428974 132.410577,87.8703975 C131.329886,87.6460413 130.217507,87.7249564 129.008505,88.1408971 C129.529385,88.8171957 130.07923,89.4485383 130.657908,90.0351571 L130.657908,90.0351571 L130.892198,90.2686754 L131.12585,90.4939869 L131.763162,91.1005941 L132.060576,91.3534222 C133.485618,92.5407491 135.030059,93.4708314 136.699626,94.1493419 L136.699626,94.1493419 L137.014137,94.2736159 L137.382225,94.4109784 L137.722722,94.5307733 C138.292531,94.7245258 138.873604,94.8886836 139.461383,95.0222521 L139.461383,95.0222521 L139.814819,95.0987145 L140.182445,95.1703917 L140.517628,95.2312229 L140.82849,95.2823533 C144.142684,95.7990242 147.404243,95.3965646 150.657086,94.0668307 L150.657086,94.0668307 L150.962015,93.9394513 L151.253747,93.8125884 L151.620811,93.6473575 L151.965045,93.4970127 L152.269276,93.359313 C155.492544,91.8711604 158.016506,89.7634314 159.878288,87.0164747 L159.878288,87.0164747 L160.050891,86.7570741 L160.211177,86.5075762 L160.397592,86.2071546 L160.590508,85.8862714 C161.031761,85.1346047 161.411036,84.3619568 161.73238,83.5598013 C162.494336,81.6799382 162.913353,79.7093212 162.989897,77.6553763 L162.989897,77.6553763 L163,77.2911535 L162.974411,76.3636551 L162.962417,76.0339005 C162.848753,73.5025687 162.235719,70.8972745 161.117399,68.2141183 L161.117399,68.2141183 L160.968665,67.8636996 L160.816371,67.5170973 L160.657633,67.167805 C159.428525,64.5086377 157.920726,62.2803892 156.138049,60.476121 L156.138049,60.476121 L155.903967,60.2431856 L155.670983,60.0188814 L154.766513,59.1629741 L154.580662,59.0052693 L154.341633,58.8097715 C152.1796,57.0723765 149.726349,55.9310879 146.950726,55.3709383 L146.950726,55.3709383 L146.640995,55.3110902 L146.339201,55.2577028 L146.027393,55.2076891 Z M51.0448276,55 C49.0126437,55 47.4137931,55.6126437 46.2482759,56.837931 C45.0827586,58.0632184 44.5,59.6321839 44.5,61.5448276 C44.5,63.4574713 45.0827586,65.0114943 46.2482759,66.2068966 C47.4137931,67.4022989 49.0126437,68 51.0448276,68 C52.9574713,68 54.5114943,67.4022989 55.7068966,66.2068966 C56.9022989,65.0114943 57.5,63.4574713 57.5,61.5448276 C57.5,59.6321839 56.9022989,58.0632184 55.7068966,56.837931 C54.5114943,55.6126437 52.9574713,55 51.0448276,55 Z" id="Combined-Shape" fill="#4EB872"></path>
    </g>
</svg>