<?xml version="1.0" encoding="UTF-8"?>
<svg width="208px" height="124px" viewBox="0 0 208 124" version="1.1" xmlns="http://www.w3.org/2000/svg" xmlns:xlink="http://www.w3.org/1999/xlink">
    <title>linc-logo--spacing</title>
    <g id="linc-logo--spacing" stroke="none" stroke-width="1" fill="none" fill-rule="evenodd">
        <g id="logo-with-spacing" transform="translate(-4.000000, -15.000000)">
            <rect id="Rectangle" stroke="#979797" stroke-width="0.25" x="0" y="35" width="216" height="12"></rect>
            <rect id="Rectangle" stroke="#979797" stroke-width="0.25" x="0" y="107" width="216" height="12"></rect>
            <rect id="Rectangle" stroke="#979797" stroke-width="0.25" x="180" y="0" width="12" height="153"></rect>
            <rect id="Rectangle" stroke="#979797" stroke-width="0.25" x="24" y="8" width="12" height="141"></rect>
            <line x1="24" y1="59" x2="192" y2="59" id="Line" stroke="#979797" stroke-width="0.25" opacity="0.248395647" stroke-linecap="square"></line>
            <g id="linc-logo--group" transform="translate(36.000000, 47.000000)" fill-rule="nonzero">
                <path d="M9.33088783,57.744515 L5.63501079,57.7446384 L5.63484232,54.3912458 L3.91698614,54.3912458 L3.91712652,57.7446384 L1.71810888,57.7446384 L1.71785618,53.6362564 L0,53.6362564 L0,59.6013149 L9.33088783,59.6013149 L9.33088783,57.744515 Z M9.48888607,50.0266311 C9.48888607,49.3053789 9.34152096,48.6738587 9.04679073,48.1320706 C8.7520605,47.5902825 8.34175749,47.1678664 7.81588169,46.8648223 C7.29000589,46.5617783 6.68252621,46.4102563 5.99344266,46.4102563 C5.29536733,46.4102563 4.68339177,46.5617783 4.15751597,46.8648223 C3.63164018,47.1678664 3.2199099,47.5902825 2.92232514,48.1320706 C2.62474038,48.6738587 2.475948,49.3053789 2.475948,50.0266311 C2.475948,50.7381387 2.62474038,51.3654878 2.92232514,51.9086786 C3.2199099,52.4518694 3.63164018,52.87447 4.15751597,53.1764805 C4.68339177,53.4784911 5.29536733,53.6294963 5.99344266,53.6294963 C6.68252621,53.6294963 7.29000589,53.4784911 7.81588169,53.1764805 C8.34175749,52.87447 8.7520605,52.4518694 9.04679073,51.9086786 C9.34152096,51.3654878 9.48888607,50.7381387 9.48888607,50.0266311 Z M7.74876455,50.0255238 C7.74876455,50.5325412 7.58591361,50.9448435 7.26021173,51.2624307 C6.93450985,51.5800179 6.50704398,51.7388115 5.97781411,51.7388115 C5.44844151,51.7388115 5.02158222,51.5800179 4.69723624,51.2624307 C4.37289027,50.9448435 4.21071728,50.5325412 4.21071728,50.0255238 C4.21071728,49.5108287 4.37410344,49.0937648 4.70087577,48.774332 C5.0276481,48.4548993 5.45657692,48.2951829 5.98766224,48.2951829 C6.51104032,48.2951829 6.93540189,48.4548993 7.26074696,48.774332 C7.58609202,49.0937648 7.74876455,49.5108287 7.74876455,50.0255238 Z M9.33088783,43.780026 L4.75899763,43.7801828 L4.69296772,43.7120971 C4.64797702,43.6622634 4.60652618,43.6092072 4.56861519,43.5529283 L4.51440359,43.466093 C4.33990398,43.1640087 4.24594264,42.7383523 4.2325196,42.1891237 L4.23084172,42.0492422 L4.23084172,41.5936795 L2.60461595,41.5936795 C2.55894346,41.6633685 2.52608069,41.7601876 2.50602761,41.8841367 C2.48597454,42.0080858 2.475948,42.1445479 2.475948,42.293523 C2.475948,42.5914732 2.54656194,42.8810815 2.68778981,43.1623477 C2.82901769,43.4436139 2.99672133,43.689445 3.19090074,43.899841 L3.27310465,43.9867971 L3.27310465,43.9867971 L3.3528842,44.0669168 L2.63394624,44.2504271 L2.63394624,45.636826 L9.33088783,45.636826 L9.33088783,43.780026 Z M2.63394624,40.7800435 L4.28778959,40.7800435 L4.28819671,39.7064227 L7.17628855,39.7061381 C7.92464558,39.7061381 8.48029319,39.5243768 8.84323138,39.1608542 L8.90902397,39.0905637 C9.26905157,38.6801808 9.44906538,38.1183497 9.44906538,37.4050704 C9.44906538,37.1812386 9.43536363,36.9834664 9.40796014,36.8117537 C9.38055665,36.6400411 9.34330504,36.4782945 9.29620529,36.3265141 L7.6181698,36.3265141 C7.64557329,36.4173166 7.67015793,36.5250615 7.69192372,36.6497488 C7.71368951,36.7744361 7.72457241,36.9116364 7.72457241,37.0613498 C7.72457241,37.294631 7.65888254,37.4842827 7.52750279,37.6303048 C7.39612304,37.776327 7.18335351,37.8493381 6.88919419,37.8493381 L4.28819671,37.8493904 L4.28778959,36.3265141 L2.63394624,36.3265141 L2.63410418,37.8493904 L1.05867383,37.8493381 L1.05867383,39.3500152 L2.63394624,39.7223054 L2.63394624,40.7800435 Z M9.33088783,28.5354486 C9.33088783,27.4809587 9.10969743,26.67935 8.66731664,26.1306225 C8.22493584,25.581895 7.57206914,25.3075312 6.70871653,25.3075312 C6.23614908,25.3075312 5.82135018,25.4104776 5.46431983,25.6163704 C5.10728949,25.8222632 4.82883008,26.1193645 4.62894161,26.5076742 C4.61076993,26.5429751 4.59342424,26.5790088 4.57690453,26.6157751 L4.53437887,26.7178851 L4.49963801,26.6564826 C4.33531928,26.3838874 4.12390168,26.1567992 3.86538522,25.9752179 L3.75170885,25.9001835 C3.40202892,25.6834387 2.99839837,25.5750663 2.5408172,25.5750663 C1.97447844,25.5750663 1.50283871,25.6877574 1.12589802,25.9131395 C0.748957322,26.1385216 0.46707248,26.4873729 0.280243488,26.9596934 C0.108983579,27.3926539 0.0162177944,27.9406217 0.00194613533,28.6035966 L0,28.7872594 L0,32.1642258 L9.33088783,32.1642258 L9.33088783,28.5354486 Z M1.71945659,30.3078687 L1.71914072,28.7500525 C1.71914072,28.338267 1.81309044,28.0230421 2.00098988,27.8043779 C2.18888932,27.5857138 2.44033774,27.4763817 2.75533513,27.4763817 C3.09302604,27.4763817 3.34736466,27.5842742 3.51835101,27.8000593 C3.67223873,27.9942659 3.75687697,28.2701847 3.77226574,28.6278158 L3.77483054,28.7500525 L3.77516747,30.3078687 L1.71945659,30.3078687 Z M5.34480335,30.3078687 L5.3447507,28.5133017 C5.3447507,28.0963485 5.44009201,27.7728924 5.63077462,27.5429332 C5.82145722,27.3129741 6.10534024,27.1979946 6.48242366,27.1979946 C6.8256809,27.1979946 7.09971578,27.316776 7.30452831,27.5543389 C7.49072152,27.7703052 7.59228145,28.061925 7.60920811,28.4291982 L7.61174711,28.5416498 L7.61210509,30.3078687 L5.34480335,30.3078687 Z M9.46276712,21.3323238 C9.46276712,20.5706165 9.31450997,19.9225231 9.01799566,19.3880434 C8.74429014,18.8946776 8.36213613,18.4983076 7.87153362,18.1989333 L7.74662365,18.1261105 L7.02942298,19.4170559 C7.31487598,19.614902 7.55344333,19.8496227 7.74512502,20.1212181 C7.93680672,20.3928135 8.03264756,20.7694223 8.03264756,21.2510446 C8.03264756,21.8051611 7.87932362,22.2387614 7.57267573,22.5518454 C7.31320444,22.8167627 6.9706792,22.9695995 6.54510002,23.010356 L6.50563309,23.0135796 L6.50554535,17.9210297 C6.45919492,17.9111743 6.40359179,17.9031876 6.33873598,17.8970695 L6.27079593,17.8915743 C6.1760969,17.8850779 6.07757993,17.8818296 5.97524503,17.8818296 C5.29972049,17.8818296 4.69987668,18.0235701 4.1757136,18.307051 C3.65155052,18.5905319 3.23721549,18.9900997 2.93270849,19.5057545 C2.6282015,20.0214092 2.475948,20.6302657 2.475948,21.3323238 C2.475948,22.017698 2.62474038,22.6191352 2.92232514,23.1366355 C3.2199099,23.6541359 3.63164018,24.0564351 4.15751597,24.3435334 C4.68339177,24.6306316 5.29451098,24.7741807 5.99087358,24.7741807 C6.69208889,24.7741807 7.30302968,24.6306316 7.82369596,24.3435334 C8.34436225,24.0564351 8.74770734,23.6541359 9.03373125,23.1366355 C9.31975516,22.6191352 9.46276712,22.017698 9.46276712,21.3323238 Z M5.16510834,19.6875585 L5.16510834,22.9843021 L5.13103972,22.9777227 C4.85630219,22.919391 4.61933228,22.8027277 4.42012999,22.6277328 L4.3471995,22.5593754 C4.03883889,22.2513114 3.88465858,21.8386769 3.88465858,21.3214718 C3.88465858,20.7432889 4.06474375,20.3143395 4.42491408,20.0346235 C4.61885195,19.8840073 4.84247123,19.7739415 5.09577192,19.7044263 L5.16510834,19.6875585 Z M9.33088783,15.2300009 L5.01685996,15.2304021 L4.93520985,15.1479553 C4.90024471,15.1105683 4.8661602,15.0719603 4.8329563,15.0321312 L4.73598649,14.9089809 C4.57877325,14.6976252 4.45563596,14.4694748 4.36657462,14.2245295 C4.27751328,13.9795843 4.23298261,13.7402497 4.23298261,13.5065256 C4.23298261,13.2475539 4.30120588,13.0341681 4.43765242,12.8663681 C4.56272841,12.7125514 4.80359673,12.629234 5.16025737,12.6164159 L5.26039934,12.614668 L9.33088783,12.614668 L9.33088783,10.7578681 L5.27559971,10.7578681 C4.91935436,10.7578681 4.57399191,10.7821928 4.23951235,10.8308423 C3.90503279,10.8794917 3.60566395,10.9771967 3.34140583,11.1239571 C3.07714771,11.2707175 2.86684021,11.4885696 2.71048333,11.7775135 C2.55412644,12.0664573 2.475948,12.449378 2.475948,12.9262756 C2.475948,13.3165048 2.53721335,13.6927445 2.65974406,14.0549947 C2.78227476,14.4172449 2.94926477,14.7552073 3.16071408,15.0688819 C3.23119719,15.1734401 3.30519691,15.274467 3.38271326,15.3719628 L3.45396264,15.4576515 L2.63394624,15.700402 L2.63394624,17.0868009 L9.33088783,17.0868009 L9.33088783,15.2300009 Z M9.48888607,6.89341617 C9.48888607,6.2842275 9.34448253,5.75174109 9.05567545,5.29595694 C8.93533917,5.10604688 8.79432489,4.93345834 8.63263261,4.77819133 L8.61839713,4.76530924 L9.33088783,4.55647041 L9.33088783,3.16475631 L0,3.16475631 L0,5.02155628 L3.07121228,5.02183623 L3.03730026,5.06383234 C3.01091072,5.09886963 2.98537829,5.13460619 2.96070296,5.17104201 L2.88924827,5.2824473 C2.61371476,5.7364597 2.475948,6.26983199 2.475948,6.88256416 C2.475948,7.50843686 2.62331312,8.06325478 2.91804334,8.5470179 C3.21277357,9.03078103 3.62307659,9.40764823 4.14895238,9.6776195 C4.67482818,9.94759078 5.28316422,10.0825764 5.97396049,10.0825764 C6.6611886,10.0825764 7.27002418,9.94847665 7.80046723,9.68027714 C8.33091027,9.41207762 8.74492418,9.03701909 9.04250893,8.55510154 C9.34009369,8.07318399 9.48888607,7.51928887 9.48888607,6.89341617 Z M7.83333,6.56165491 C7.83333,7.03899543 7.66116616,7.43007358 7.31683847,7.73488939 C6.97251078,8.03970519 6.52488479,8.19211309 5.97396049,8.19211309 C5.42874525,8.19211309 4.98447333,8.03970519 4.64114473,7.73488939 C4.29781613,7.43007358 4.12615183,7.03899543 4.12615183,6.56165491 C4.12615183,6.08062324 4.29781613,5.68825318 4.64114473,5.38454473 C4.98447333,5.08083627 5.43159978,4.92898204 5.98252408,4.92898204 C6.53330565,4.92898204 6.9794687,5.08083627 7.32101322,5.38454473 C7.66255774,5.68825318 7.83333,6.08062324 7.83333,6.56165491 Z" id="Fort-Bend" fill="#2F513A"></path>
                <path d="M24.8315515,60 C25.7195222,60 26.5952207,59.9414607 27.4586473,59.824382 C28.3220738,59.7073033 29.0908302,59.53125 29.7649165,59.2962221 L29.7649165,51.0271588 C28.6209859,51.0271588 27.6363729,50.7261925 26.8110774,50.1242601 C25.9857819,49.5223276 25.5731341,48.3025766 25.5731341,46.465007 L25.5731341,2.67409471 L15.9470241,2.67409471 L15.9470241,49.8689937 C15.9470241,52.1600801 16.341483,54.0511838 17.1304006,55.542305 C17.9193182,57.0334262 18.982823,58.1491556 20.320915,58.8894934 C21.6590069,59.6298311 23.1625525,60 24.8315515,60 Z" id="l" fill="#4EB872"></path>
                <polygon id="i" fill="#4EB872" points="45.2517188 59.5821727 45.2517188 18.8022284 35.490178 18.8022284 35.490178 59.5821727"></polygon>
                <path d="M63.1211552,59.5821727 L63.1209383,32.7613742 L63.245081,32.6199077 C63.7250333,32.0840769 64.2540618,31.5744044 64.8321665,31.0908904 L65.0829304,30.8852716 C66.4363624,29.7971797 67.9361825,28.9378047 69.5823906,28.3071466 C71.2285987,27.6764885 72.8441267,27.3611595 74.4289746,27.3611595 C76.0918376,27.3611595 77.499179,27.8185933 78.6509988,28.733461 C79.8028185,29.6483287 80.3787284,31.4549965 80.3787284,34.1534645 L80.3787284,34.1534645 L80.3787284,59.5821727 L90.1402692,59.5821727 L90.1402692,35.0504875 C90.1402692,32.8777855 90.0114127,30.7662343 89.7536996,28.7158339 C89.4959865,26.6654335 88.9522908,24.8267758 88.1226124,23.1998607 C87.292934,21.5729457 86.0282552,20.2774634 84.328576,19.313414 C82.6288968,18.3493646 80.3427888,17.8673398 77.4702521,17.8673398 C75.2157008,17.8673398 73.0312755,18.2153116 70.9169763,18.9112552 C68.802677,19.6071988 66.8170152,20.5843054 64.9599907,21.8425749 C64.0314785,22.4717096 63.1442201,23.1595469 62.2982155,23.9060868 L62.1256165,24.0608171 L60.7031227,18.7695857 L53.3609292,18.7695857 L53.3609292,59.5821727 L63.1211552,59.5821727 Z" id="n" fill="#4EB872"></path>
                <path d="M107.065352,18.6291762 C110.915032,17.0064583 114.786311,16.5576418 118.679189,17.2827265 C122.474745,17.989684 125.739297,19.676493 128.472844,22.3431534 L128.68207,22.5502138 L121.843767,29.6569058 L121.669231,29.4845568 C120.093157,27.9546235 118.375335,26.9972961 116.515766,26.6125745 C114.587323,26.2136041 112.615294,26.4389301 110.599679,27.2885526 C107.786855,28.4742148 105.850731,30.4326728 104.791307,33.1639267 C103.731883,35.8951806 103.941983,38.9915618 105.421605,42.4530703 C106.905338,45.9241941 109.003295,48.2274056 111.715478,49.3627048 C114.42766,50.498004 117.190164,50.4728225 120.002988,49.2871603 C122.018603,48.4375377 123.552825,47.1879818 124.605653,45.5384925 C125.541533,44.0722282 126.042134,42.3560487 126.107456,40.389954 L135.999033,40.3900945 C135.914926,44.040541 134.856652,47.4109579 132.824214,50.5013452 C130.660174,53.7918363 127.6634,56.2441892 123.833892,57.8584039 C119.960812,59.4909852 116.232801,60.0727966 112.649858,59.6038379 C109.066916,59.1348793 105.861731,57.759626 103.034305,55.4780781 C100.20688,53.1965301 97.9711541,50.1326959 96.3271292,46.2865753 C94.6872143,42.45007 94.0239757,38.7319117 94.3374135,35.1321003 C94.6508512,31.5322889 95.8822637,28.289994 98.0316508,25.4052157 C100.181038,22.5204373 103.192271,20.2617575 107.065352,18.6291762 Z" id="c" fill="#4EB872"></path>
                <path d="M40.3709484,12.1169916 C42.1661743,12.1169916 43.6247954,11.5598886 44.7468116,10.4456825 C45.8688277,9.33147632 46.4298358,7.88300836 46.4298358,6.10027855 C46.4298358,4.31754875 45.8688277,2.8551532 44.7468116,1.71309192 C43.6247954,0.571030641 42.1661743,0 40.3709484,0 C38.4635209,0 36.9628243,0.571030641 35.8688585,1.71309192 C34.7748927,2.8551532 34.2279098,4.31754875 34.2279098,6.10027855 C34.2279098,7.88300836 34.7748927,9.33147632 35.8688585,10.4456825 C36.9628243,11.5598886 38.4635209,12.1169916 40.3709484,12.1169916 Z" id="dot" fill="#2F513A"></path>
                <path d="M128.327064,0.191123008 L128.614995,0.237147427 L128.89368,0.286276413 L129.179693,0.341350778 C131.742774,0.856820613 134.008168,1.90707556 136.004644,3.50588911 L136.22537,3.6857932 L136.396989,3.83091886 L137.2322,4.61855562 L137.447343,4.82496836 L137.6635,5.03932398 C139.309669,6.69967657 140.70201,8.75019119 141.836999,11.1972528 L141.983581,11.5186842 L142.124214,11.83764 L142.261559,12.160108 C143.294244,14.6292451 143.860335,17.0267307 143.965295,19.3561535 L143.97637,19.6596055 L144,20.513123 L143.990671,20.8482939 C143.919988,22.7384081 143.533057,24.5518409 142.829447,26.2817587 C142.532711,27.0199311 142.182478,27.7309495 141.775014,28.4226603 L141.596871,28.7179486 L141.42473,28.9944074 L141.276718,29.2240044 L141.117332,29.4627141 C139.398115,31.9905628 137.067425,33.9301709 134.090977,35.2996226 L133.810042,35.4263388 L133.492169,35.5646915 L133.153212,35.7167429 L132.88382,35.8334868 L132.60224,35.9507059 C129.598482,37.174375 126.586676,37.5447328 123.526265,37.0692736 L123.239208,37.0222216 L122.929691,36.9662425 L122.590215,36.9002826 L122.263844,36.8299191 C121.721074,36.7070046 121.184496,36.5559406 120.65832,36.3776426 L120.343897,36.267403 L120.003995,36.1409971 L119.713567,36.0266357 C118.171847,35.4022459 116.745671,34.5463506 115.429751,33.4537296 L115.155111,33.2210681 L114.566602,32.6628462 L114.350841,32.4555065 L114.134492,32.2406145 C113.600126,31.7007867 113.092385,31.1198025 112.611391,30.4974482 C113.727814,30.1146845 114.755014,30.0420641 115.752951,30.2485247 C116.520231,30.4072653 117.266768,30.7367786 118.005978,31.2606983 L118.176442,31.3850646 C119.146521,32.1100353 120.184062,32.6920617 121.292685,33.1336573 C124.789647,34.5265955 128.412388,34.5069135 131.951765,33.0877531 L132.284689,32.9502894 L132.369653,32.9117818 C135.964549,31.2473968 138.49651,28.5435377 139.828084,24.938609 C140.325569,23.5917836 140.599755,22.1842757 140.65058,20.7307668 L140.658147,20.3917688 L140.657813,20.0951498 L140.650215,19.7207959 C140.572137,17.5019211 139.99079,15.2157648 138.937105,12.8656216 L138.798474,12.562245 C137.847581,10.5235803 136.702796,8.80716091 135.340101,7.403846 L135.104401,7.16640881 L134.844368,6.93929149 L134.781398,6.87877891 L134.667209,6.76437927 C134.52668,6.62622553 134.390295,6.50183484 134.234715,6.37084823 L134.037311,6.20919527 L133.928898,6.12355119 L133.928898,6.12355119 L133.68705,5.93774164 C132.704836,5.19404846 131.642214,4.59246081 130.506033,4.13812332 C126.97697,2.72691819 123.323852,2.75623782 119.759501,4.20646927 L119.47809,4.32388788 L119.397001,4.36132622 C115.824088,6.01586855 113.292731,8.72435957 111.96423,12.3360025 C111.823621,12.7182583 111.700865,13.1054521 111.596,13.497248 C110.388335,13.6812775 109.184459,13.9609894 107.986411,14.3359437 C108.324859,12.2259036 109.097018,10.2303833 110.31027,8.33020758 C112.082148,5.55512155 114.534342,3.45363886 117.719494,1.99040925 L117.994304,1.86655182 L118.312104,1.72857154 L118.638914,1.58155062 L118.912848,1.46316058 L119.197158,1.34470493 C122.134856,0.146565105 125.06791,-0.248710138 128.039381,0.150054395 L128.327064,0.191123008 Z" id="link" fill="#2F513A"></path>
            </g>
        </g>
        <text id="20%-(12px)" font-family="Figtree-Light_Regular, Figtree" font-size="7" font-weight="normal" letter-spacing="-0.168965517" fill="#000000">
            <tspan x="33.9124251" y="28">20% (12px)</tspan>
        </text>
    </g>
</svg>