<?xml version="1.0" encoding="UTF-8"?>
<svg width="146px" height="64px" viewBox="0 0 146 64" version="1.1" xmlns="http://www.w3.org/2000/svg" xmlns:xlink="http://www.w3.org/1999/xlink">
    <title>linc-logo</title>
    <g id="linc-logo" stroke="none" stroke-width="1" fill="none" fill-rule="evenodd">
        <path d="M10.3308878,59.744515 L6.63501079,59.7446384 L6.63484232,56.3912458 L4.91698614,56.3912458 L4.91712652,59.7446384 L2.71810888,59.7446384 L2.71785618,55.6362564 L1,55.6362564 L1,61.6013149 L10.3308878,61.6013149 L10.3308878,59.744515 Z M10.4888861,52.0266311 C10.4888861,51.3053789 10.341521,50.6738587 10.0467907,50.1320706 C9.7520605,49.5902825 9.34175749,49.1678664 8.81588169,48.8648223 C8.29000589,48.5617783 7.68252621,48.4102563 6.99344266,48.4102563 C6.29536733,48.4102563 5.68339177,48.5617783 5.15751597,48.8648223 C4.63164018,49.1678664 4.2199099,49.5902825 3.92232514,50.1320706 C3.62474038,50.6738587 3.475948,51.3053789 3.475948,52.0266311 C3.475948,52.7381387 3.62474038,53.3654878 3.92232514,53.9086786 C4.2199099,54.4518694 4.63164018,54.87447 5.15751597,55.1764805 C5.68339177,55.4784911 6.29536733,55.6294963 6.99344266,55.6294963 C7.68252621,55.6294963 8.29000589,55.4784911 8.81588169,55.1764805 C9.34175749,54.87447 9.7520605,54.4518694 10.0467907,53.9086786 C10.341521,53.3654878 10.4888861,52.7381387 10.4888861,52.0266311 Z M8.74876455,52.0255238 C8.74876455,52.5325412 8.58591361,52.9448435 8.26021173,53.2624307 C7.93450985,53.5800179 7.50704398,53.7388115 6.97781411,53.7388115 C6.44844151,53.7388115 6.02158222,53.5800179 5.69723624,53.2624307 C5.37289027,52.9448435 5.21071728,52.5325412 5.21071728,52.0255238 C5.21071728,51.5108287 5.37410344,51.0937648 5.70087577,50.774332 C6.0276481,50.4548993 6.45657692,50.2951829 6.98766224,50.2951829 C7.51104032,50.2951829 7.93540189,50.4548993 8.26074696,50.774332 C8.58609202,51.0937648 8.74876455,51.5108287 8.74876455,52.0255238 Z M10.3308878,45.780026 L5.75899763,45.7801828 L5.69296772,45.7120971 C5.64797702,45.6622634 5.60652618,45.6092072 5.56861519,45.5529283 L5.51440359,45.466093 C5.33990398,45.1640087 5.24594264,44.7383523 5.2325196,44.1891237 L5.23084172,44.0492422 L5.23084172,43.5936795 L3.60461595,43.5936795 C3.55894346,43.6633685 3.52608069,43.7601876 3.50602761,43.8841367 C3.48597454,44.0080858 3.475948,44.1445479 3.475948,44.293523 C3.475948,44.5914732 3.54656194,44.8810815 3.68778981,45.1623477 C3.82901769,45.4436139 3.99672133,45.689445 4.19090074,45.899841 L4.27310465,45.9867971 L4.27310465,45.9867971 L4.3528842,46.0669168 L3.63394624,46.2504271 L3.63394624,47.636826 L10.3308878,47.636826 L10.3308878,45.780026 Z M3.63394624,42.7800435 L5.28778959,42.7800435 L5.28819671,41.7064227 L8.17628855,41.7061381 C8.92464558,41.7061381 9.48029319,41.5243768 9.84323138,41.1608542 L9.90902397,41.0905637 C10.2690516,40.6801808 10.4490654,40.1183497 10.4490654,39.4050704 C10.4490654,39.1812386 10.4353636,38.9834664 10.4079601,38.8117537 C10.3805567,38.6400411 10.343305,38.4782945 10.2962053,38.3265141 L8.6181698,38.3265141 C8.64557329,38.4173166 8.67015793,38.5250615 8.69192372,38.6497488 C8.71368951,38.7744361 8.72457241,38.9116364 8.72457241,39.0613498 C8.72457241,39.294631 8.65888254,39.4842827 8.52750279,39.6303048 C8.39612304,39.776327 8.18335351,39.8493381 7.88919419,39.8493381 L5.28819671,39.8493904 L5.28778959,38.3265141 L3.63394624,38.3265141 L3.63410418,39.8493904 L2.05867383,39.8493381 L2.05867383,41.3500152 L3.63394624,41.7223054 L3.63394624,42.7800435 Z M10.3308878,30.5354486 C10.3308878,29.4809587 10.1096974,28.67935 9.66731664,28.1306225 C9.22493584,27.581895 8.57206914,27.3075312 7.70871653,27.3075312 C7.23614908,27.3075312 6.82135018,27.4104776 6.46431983,27.6163704 C6.10728949,27.8222632 5.82883008,28.1193645 5.62894161,28.5076742 C5.61076993,28.5429751 5.59342424,28.5790088 5.57690453,28.6157751 L5.53437887,28.7178851 L5.49963801,28.6564826 C5.33531928,28.3838874 5.12390168,28.1567992 4.86538522,27.9752179 L4.75170885,27.9001835 C4.40202892,27.6834387 3.99839837,27.5750663 3.5408172,27.5750663 C2.97447844,27.5750663 2.50283871,27.6877574 2.12589802,27.9131395 C1.74895732,28.1385216 1.46707248,28.4873729 1.28024349,28.9596934 C1.10898358,29.3926539 1.01621779,29.9406217 1.00194614,30.6035966 L1,30.7872594 L1,34.1642258 L10.3308878,34.1642258 L10.3308878,30.5354486 Z M2.71945659,32.3078687 L2.71914072,30.7500525 C2.71914072,30.338267 2.81309044,30.0230421 3.00098988,29.8043779 C3.18888932,29.5857138 3.44033774,29.4763817 3.75533513,29.4763817 C4.09302604,29.4763817 4.34736466,29.5842742 4.51835101,29.8000593 C4.67223873,29.9942659 4.75687697,30.2701847 4.77226574,30.6278158 L4.77483054,30.7500525 L4.77516747,32.3078687 L2.71945659,32.3078687 Z M6.34480335,32.3078687 L6.3447507,30.5133017 C6.3447507,30.0963485 6.44009201,29.7728924 6.63077462,29.5429332 C6.82145722,29.3129741 7.10534024,29.1979946 7.48242366,29.1979946 C7.8256809,29.1979946 8.09971578,29.316776 8.30452831,29.5543389 C8.49072152,29.7703052 8.59228145,30.061925 8.60920811,30.4291982 L8.61174711,30.5416498 L8.61210509,32.3078687 L6.34480335,32.3078687 Z M10.4627671,23.3323238 C10.4627671,22.5706165 10.31451,21.9225231 10.0179957,21.3880434 C9.74429014,20.8946776 9.36213613,20.4983076 8.87153362,20.1989333 L8.74662365,20.1261105 L8.02942298,21.4170559 C8.31487598,21.614902 8.55344333,21.8496227 8.74512502,22.1212181 C8.93680672,22.3928135 9.03264756,22.7694223 9.03264756,23.2510446 C9.03264756,23.8051611 8.87932362,24.2387614 8.57267573,24.5518454 C8.31320444,24.8167627 7.9706792,24.9695995 7.54510002,25.010356 L7.50563309,25.0135796 L7.50554535,19.9210297 C7.45919492,19.9111743 7.40359179,19.9031876 7.33873598,19.8970695 L7.27079593,19.8915743 C7.1760969,19.8850779 7.07757993,19.8818296 6.97524503,19.8818296 C6.29972049,19.8818296 5.69987668,20.0235701 5.1757136,20.307051 C4.65155052,20.5905319 4.23721549,20.9900997 3.93270849,21.5057545 C3.6282015,22.0214092 3.475948,22.6302657 3.475948,23.3323238 C3.475948,24.017698 3.62474038,24.6191352 3.92232514,25.1366355 C4.2199099,25.6541359 4.63164018,26.0564351 5.15751597,26.3435334 C5.68339177,26.6306316 6.29451098,26.7741807 6.99087358,26.7741807 C7.69208889,26.7741807 8.30302968,26.6306316 8.82369596,26.3435334 C9.34436225,26.0564351 9.74770734,25.6541359 10.0337313,25.1366355 C10.3197552,24.6191352 10.4627671,24.017698 10.4627671,23.3323238 Z M6.16510834,21.6875585 L6.16510834,24.9843021 L6.13103972,24.9777227 C5.85630219,24.919391 5.61933228,24.8027277 5.42012999,24.6277328 L5.3471995,24.5593754 C5.03883889,24.2513114 4.88465858,23.8386769 4.88465858,23.3214718 C4.88465858,22.7432889 5.06474375,22.3143395 5.42491408,22.0346235 C5.61885195,21.8840073 5.84247123,21.7739415 6.09577192,21.7044263 L6.16510834,21.6875585 Z M10.3308878,17.2300009 L6.01685996,17.2304021 L5.93520985,17.1479553 C5.90024471,17.1105683 5.8661602,17.0719603 5.8329563,17.0321312 L5.73598649,16.9089809 C5.57877325,16.6976252 5.45563596,16.4694748 5.36657462,16.2245295 C5.27751328,15.9795843 5.23298261,15.7402497 5.23298261,15.5065256 C5.23298261,15.2475539 5.30120588,15.0341681 5.43765242,14.8663681 C5.56272841,14.7125514 5.80359673,14.629234 6.16025737,14.6164159 L6.26039934,14.614668 L10.3308878,14.614668 L10.3308878,12.7578681 L6.27559971,12.7578681 C5.91935436,12.7578681 5.57399191,12.7821928 5.23951235,12.8308423 C4.90503279,12.8794917 4.60566395,12.9771967 4.34140583,13.1239571 C4.07714771,13.2707175 3.86684021,13.4885696 3.71048333,13.7775135 C3.55412644,14.0664573 3.475948,14.449378 3.475948,14.9262756 C3.475948,15.3165048 3.53721335,15.6927445 3.65974406,16.0549947 C3.78227476,16.4172449 3.94926477,16.7552073 4.16071408,17.0688819 C4.23119719,17.1734401 4.30519691,17.274467 4.38271326,17.3719628 L4.45396264,17.4576515 L3.63394624,17.700402 L3.63394624,19.0868009 L10.3308878,19.0868009 L10.3308878,17.2300009 Z M10.4888861,8.89341617 C10.4888861,8.2842275 10.3444825,7.75174109 10.0556755,7.29595694 C9.93533917,7.10604688 9.79432489,6.93345834 9.63263261,6.77819133 L9.61839713,6.76530924 L10.3308878,6.55647041 L10.3308878,5.16475631 L1,5.16475631 L1,7.02155628 L4.07121228,7.02183623 L4.03730026,7.06383234 C4.01091072,7.09886963 3.98537829,7.13460619 3.96070296,7.17104201 L3.88924827,7.2824473 C3.61371476,7.7364597 3.475948,8.26983199 3.475948,8.88256416 C3.475948,9.50843686 3.62331312,10.0632548 3.91804334,10.5470179 C4.21277357,11.030781 4.62307659,11.4076482 5.14895238,11.6776195 C5.67482818,11.9475908 6.28316422,12.0825764 6.97396049,12.0825764 C7.6611886,12.0825764 8.27002418,11.9484767 8.80046723,11.6802771 C9.33091027,11.4120776 9.74492418,11.0370191 10.0425089,10.5551015 C10.3400937,10.073184 10.4888861,9.51928887 10.4888861,8.89341617 Z M8.83333,8.56165491 C8.83333,9.03899543 8.66116616,9.43007358 8.31683847,9.73488939 C7.97251078,10.0397052 7.52488479,10.1921131 6.97396049,10.1921131 C6.42874525,10.1921131 5.98447333,10.0397052 5.64114473,9.73488939 C5.29781613,9.43007358 5.12615183,9.03899543 5.12615183,8.56165491 C5.12615183,8.08062324 5.29781613,7.68825318 5.64114473,7.38454473 C5.98447333,7.08083627 6.43159978,6.92898204 6.98252408,6.92898204 C7.53330565,6.92898204 7.9794687,7.08083627 8.32101322,7.38454473 C8.66255774,7.68825318 8.83333,8.08062324 8.83333,8.56165491 Z" id="Fort-Bend" fill="#2F513A" fill-rule="nonzero"></path>
        <path d="M25.8315515,62 C26.7195222,62 27.5952207,61.9414607 28.4586473,61.824382 C29.3220738,61.7073033 30.0908302,61.53125 30.7649165,61.2962221 L30.7649165,53.0271588 C29.6209859,53.0271588 28.6363729,52.7261925 27.8110774,52.1242601 C26.9857819,51.5223276 26.5731341,50.3025766 26.5731341,48.465007 L26.5731341,4.67409471 L16.9470241,4.67409471 L16.9470241,51.8689937 C16.9470241,54.1600801 17.341483,56.0511838 18.1304006,57.542305 C18.9193182,59.0334262 19.982823,60.1491556 21.320915,60.8894934 C22.6590069,61.6298311 24.1625525,62 25.8315515,62 Z" id="l" fill="#4EB872" fill-rule="nonzero"></path>
        <polygon id="i" fill="#4EB872" fill-rule="nonzero" points="46.2517188 61.5821727 46.2517188 20.8022284 36.490178 20.8022284 36.490178 61.5821727"></polygon>
        <path d="M64.1211552,61.5821727 L64.1209383,34.7613742 L64.245081,34.6199077 C64.7250333,34.0840769 65.2540618,33.5744044 65.8321665,33.0908904 L66.0829304,32.8852716 C67.4363624,31.7971797 68.9361825,30.9378047 70.5823906,30.3071466 C72.2285987,29.6764885 73.8441267,29.3611595 75.4289746,29.3611595 C77.0918376,29.3611595 78.499179,29.8185933 79.6509988,30.733461 C80.8028185,31.6483287 81.3787284,33.4549965 81.3787284,36.1534645 L81.3787284,36.1534645 L81.3787284,61.5821727 L91.1402692,61.5821727 L91.1402692,37.0504875 C91.1402692,34.8777855 91.0114127,32.7662343 90.7536996,30.7158339 C90.4959865,28.6654335 89.9522908,26.8267758 89.1226124,25.1998607 C88.292934,23.5729457 87.0282552,22.2774634 85.328576,21.313414 C83.6288968,20.3493646 81.3427888,19.8673398 78.4702521,19.8673398 C76.2157008,19.8673398 74.0312755,20.2153116 71.9169763,20.9112552 C69.802677,21.6071988 67.8170152,22.5843054 65.9599907,23.8425749 C65.0314785,24.4717096 64.1442201,25.1595469 63.2982155,25.9060868 L63.1256165,26.0608171 L61.7031227,20.7695857 L54.3609292,20.7695857 L54.3609292,61.5821727 L64.1211552,61.5821727 Z" id="n" fill="#4EB872" fill-rule="nonzero"></path>
        <path d="M108.065352,20.6291762 C111.915032,19.0064583 115.786311,18.5576418 119.679189,19.2827265 C123.474745,19.989684 126.739297,21.676493 129.472844,24.3431534 L129.68207,24.5502138 L122.843767,31.6569058 L122.669231,31.4845568 C121.093157,29.9546235 119.375335,28.9972961 117.515766,28.6125745 C115.587323,28.2136041 113.615294,28.4389301 111.599679,29.2885526 C108.786855,30.4742148 106.850731,32.4326728 105.791307,35.1639267 C104.731883,37.8951806 104.941983,40.9915618 106.421605,44.4530703 C107.905338,47.9241941 110.003295,50.2274056 112.715478,51.3627048 C115.42766,52.498004 118.190164,52.4728225 121.002988,51.2871603 C123.018603,50.4375377 124.552825,49.1879818 125.605653,47.5384925 C126.541533,46.0722282 127.042134,44.3560487 127.107456,42.389954 L136.999033,42.3900945 C136.914926,46.040541 135.856652,49.4109579 133.824214,52.5013452 C131.660174,55.7918363 128.6634,58.2441892 124.833892,59.8584039 C120.960812,61.4909852 117.232801,62.0727966 113.649858,61.6038379 C110.066916,61.1348793 106.861731,59.759626 104.034305,57.4780781 C101.20688,55.1965301 98.9711541,52.1326959 97.3271292,48.2865753 C95.6872143,44.45007 95.0239757,40.7319117 95.3374135,37.1321003 C95.6508512,33.5322889 96.8822637,30.289994 99.0316508,27.4052157 C101.181038,24.5204373 104.192271,22.2617575 108.065352,20.6291762 Z" id="c" fill="#4EB872" fill-rule="nonzero"></path>
        <path d="M41.3709484,14.1169916 C43.1661743,14.1169916 44.6247954,13.5598886 45.7468116,12.4456825 C46.8688277,11.3314763 47.4298358,9.88300836 47.4298358,8.10027855 C47.4298358,6.31754875 46.8688277,4.8551532 45.7468116,3.71309192 C44.6247954,2.57103064 43.1661743,2 41.3709484,2 C39.4635209,2 37.9628243,2.57103064 36.8688585,3.71309192 C35.7748927,4.8551532 35.2279098,6.31754875 35.2279098,8.10027855 C35.2279098,9.88300836 35.7748927,11.3314763 36.8688585,12.4456825 C37.9628243,13.5598886 39.4635209,14.1169916 41.3709484,14.1169916 Z" id="dot" fill="#2F513A" fill-rule="nonzero"></path>
        <path d="M129.327064,2.19112301 L129.614995,2.23714743 L129.89368,2.28627641 L130.179693,2.34135078 C132.742774,2.85682061 135.008168,3.90707556 137.004644,5.50588911 L137.22537,5.6857932 L137.396989,5.83091886 L138.2322,6.61855562 L138.447343,6.82496836 L138.6635,7.03932398 C140.309669,8.69967657 141.70201,10.7501912 142.836999,13.1972528 L142.983581,13.5186842 L143.124214,13.83764 L143.261559,14.160108 C144.294244,16.6292451 144.860335,19.0267307 144.965295,21.3561535 L144.97637,21.6596055 L145,22.513123 L144.990671,22.8482939 C144.919988,24.7384081 144.533057,26.5518409 143.829447,28.2817587 C143.532711,29.0199311 143.182478,29.7309495 142.775014,30.4226603 L142.596871,30.7179486 L142.42473,30.9944074 L142.276718,31.2240044 L142.117332,31.4627141 C140.398115,33.9905628 138.067425,35.9301709 135.090977,37.2996226 L134.810042,37.4263388 L134.492169,37.5646915 L134.153212,37.7167429 L133.88382,37.8334868 L133.60224,37.9507059 C130.598482,39.174375 127.586676,39.5447328 124.526265,39.0692736 L124.239208,39.0222216 L123.929691,38.9662425 L123.590215,38.9002826 L123.263844,38.8299191 C122.721074,38.7070046 122.184496,38.5559406 121.65832,38.3776426 L121.343897,38.267403 L121.003995,38.1409971 L120.713567,38.0266357 C119.171847,37.4022459 117.745671,36.5463506 116.429751,35.4537296 L116.155111,35.2210681 L115.566602,34.6628462 L115.350841,34.4555065 L115.134492,34.2406145 C114.600126,33.7007867 114.092385,33.1198025 113.611391,32.4974482 C114.727814,32.1146845 115.755014,32.0420641 116.752951,32.2485247 C117.520231,32.4072653 118.266768,32.7367786 119.005978,33.2606983 L119.176442,33.3850646 C120.146521,34.1100353 121.184062,34.6920617 122.292685,35.1336573 C125.789647,36.5265955 129.412388,36.5069135 132.951765,35.0877531 L133.284689,34.9502894 L133.369653,34.9117818 C136.964549,33.2473968 139.49651,30.5435377 140.828084,26.938609 C141.325569,25.5917836 141.599755,24.1842757 141.65058,22.7307668 L141.658147,22.3917688 L141.657813,22.0951498 L141.650215,21.7207959 C141.572137,19.5019211 140.99079,17.2157648 139.937105,14.8656216 L139.798474,14.562245 C138.847581,12.5235803 137.702796,10.8071609 136.340101,9.403846 L136.104401,9.16640881 L135.844368,8.93929149 L135.781398,8.87877891 L135.667209,8.76437927 C135.52668,8.62622553 135.390295,8.50183484 135.234715,8.37084823 L135.037311,8.20919527 L134.928898,8.12355119 L134.928898,8.12355119 L134.68705,7.93774164 C133.704836,7.19404846 132.642214,6.59246081 131.506033,6.13812332 C127.97697,4.72691819 124.323852,4.75623782 120.759501,6.20646927 L120.47809,6.32388788 L120.397001,6.36132622 C116.824088,8.01586855 114.292731,10.7243596 112.96423,14.3360025 C112.823621,14.7182583 112.700865,15.1054521 112.596,15.497248 C111.388335,15.6812775 110.184459,15.9609894 108.986411,16.3359437 C109.324859,14.2259036 110.097018,12.2303833 111.31027,10.3302076 C113.082148,7.55512155 115.534342,5.45363886 118.719494,3.99040925 L118.994304,3.86655182 L119.312104,3.72857154 L119.638914,3.58155062 L119.912848,3.46316058 L120.197158,3.34470493 C123.134856,2.14656511 126.06791,1.75128986 129.039381,2.1500544 L129.327064,2.19112301 Z" id="link" fill="#2F513A" fill-rule="nonzero"></path>
    </g>
</svg>