<?xml version="1.0" encoding="UTF-8"?>
<svg width="460px" height="461px" viewBox="0 0 460 461" version="1.1" xmlns="http://www.w3.org/2000/svg" xmlns:xlink="http://www.w3.org/1999/xlink">
    <title>step-01--questionnaire</title>
    <g id="Page-1" stroke="none" stroke-width="1" fill="none" fill-rule="evenodd">
        <g id="step-01--questionnaire" transform="translate(0.150000, 0.063981)" fill-rule="nonzero">
            <g id="freepik--Floor--inject-206" transform="translate(0.000000, 195.466019)" fill="#F5F5F5">
                <ellipse id="Oval" cx="229.89" cy="132.72" rx="229.89" ry="132.72"></ellipse>
            </g>
            <g id="freepik--Shadows--inject-206" transform="translate(43.224805, 230.623270)" fill="#E0E0E0">
                <path d="M193.935195,36.9027493 L63.9351949,111.982749 C60.2751949,114.092749 53.9351949,113.832749 49.6651949,111.392749 L3.49519494,84.7427493 C-0.734805065,82.3027493 -1.19480506,78.6127493 2.49519494,76.5027493 L132.495195,1.42274929 C136.155195,-0.687250708 142.495195,-0.417250708 146.765195,2.01274929 L192.925195,28.6627493 C197.135195,31.1027493 197.625195,34.7927493 193.935195,36.9027493 Z" id="Path"></path>
                <ellipse id="Oval" cx="265.405195" cy="84.2127493" rx="91.08" ry="52.58"></ellipse>
                <ellipse id="Oval" cx="181.435195" cy="137.822749" rx="43.08" ry="24.87"></ellipse>
                <path d="M367.435195,100.102749 C377.515195,105.922749 377.515195,115.362749 367.435195,121.182749 C357.355195,127.002749 340.995195,127.002749 330.915195,121.182749 C320.835195,115.362749 320.835195,105.922749 330.915195,100.102749 C340.995195,94.2827493 357.345195,94.3127493 367.435195,100.102749 Z" id="Path"></path>
            </g>
            <g id="freepik--Character--inject-206" transform="translate(197.297045, 146.799040)">
                <path d="M195.922955,135.736979 C190.142955,173.026979 152.572955,212.506979 95.0229553,201.486979 C94.4529553,201.386979 93.8829553,201.276979 93.3229553,201.156979 C92.1329553,200.906979 90.9329553,200.646979 89.7329553,200.346979 C29.1929553,185.796979 24.9329553,146.586979 27.5829553,129.516979 C30.2329553,112.446979 46.0029553,98.7169789 55.3229553,93.2769789 C64.6429553,87.8369789 76.1929553,81.6769789 86.8129553,64.5169789 C96.4429553,48.9169789 111.902955,39.5769789 134.952955,41.1469789 L137.002955,41.3069789 C138.652955,41.4669789 140.362955,41.6869789 142.102955,41.9469789 C142.102955,41.9469789 209.162955,50.3569789 195.922955,135.736979 Z" id="Path" fill="#5145BA"></path>
                <path d="M195.922955,135.736979 C190.142955,173.026979 152.572955,212.506979 95.0229553,201.486979 C94.4529553,201.386979 93.8829553,201.276979 93.3229553,201.156979 C92.1329553,200.906979 90.9329553,200.646979 89.7329553,200.346979 C29.1929553,185.796979 24.9329553,146.586979 27.5829553,129.516979 C30.2329553,112.446979 46.0029553,98.7169789 55.3229553,93.2769789 C64.6429553,87.8369789 76.1929553,81.6769789 86.8129553,64.5169789 C96.4429553,48.9169789 111.902955,39.5769789 134.952955,41.1469789 L137.002955,41.3069789 C138.652955,41.4669789 140.362955,41.6869789 142.102955,41.9469789 C142.102955,41.9469789 209.162955,50.3569789 195.922955,135.736979 Z" id="Path" fill="#FFFFFF" opacity="0.6"></path>
                <path d="M181.692955,133.536979 C176.162955,169.236979 143.902955,207.316979 95.0229553,201.536979 C94.4529553,201.436979 93.8829553,201.326979 93.3229553,201.206979 C141.172955,205.876979 172.702955,168.286979 178.162955,133.036979 C189.102955,62.5169789 149.162955,45.1169789 134.952955,41.1969789 C133.642955,40.8269789 132.552955,40.5869789 131.732955,40.4169789 L133.632955,40.6869789 C134.767631,40.8488935 135.892635,41.0725589 137.002955,41.3569789 C149.662955,44.3969789 193.042955,60.3869789 181.692955,133.536979 Z" id="Path" fill="#5145BA"></path>
                <path d="M181.692955,133.536979 C176.162955,169.236979 143.902955,207.316979 95.0229553,201.536979 C94.4529553,201.436979 93.8829553,201.326979 93.3229553,201.206979 C141.172955,205.876979 172.702955,168.286979 178.162955,133.036979 C189.102955,62.5169789 149.162955,45.1169789 134.952955,41.1969789 C133.642955,40.8269789 132.552955,40.5869789 131.732955,40.4169789 L133.632955,40.6869789 C134.767631,40.8488935 135.892635,41.0725589 137.002955,41.3569789 C149.662955,44.3969789 193.042955,60.3869789 181.692955,133.536979 Z" id="Path" fill="#FFFFFF" opacity="0.4"></path>
                <path d="M148.272955,131.376979 C148.272955,131.376979 180.432955,56.9769789 128.332955,56.9769789 C128.332955,56.9769789 100.192955,49.7869789 87.9729553,84.4069789 C75.7529553,119.026979 40.9729553,110.036979 40.9729553,137.546979 C40.9729553,154.196979 48.1229553,173.146979 54.0629553,185.486979 C59.0231657,188.807738 64.2986797,191.631395 69.8129553,193.916979 L70.0429553,193.756979 C70.0429553,193.756979 72.1229553,176.536979 84.6729553,168.116979 C97.2229553,159.696979 125.262955,151.436979 134.482955,144.486979 C143.192955,137.936979 161.152955,140.156979 164.052955,144.706979 C162.552955,141.556979 156.912955,130.446979 148.272955,131.376979 Z" id="Path" fill="#5145BA"></path>
                <path d="M148.272955,131.376979 C148.272955,131.376979 180.432955,56.9769789 128.332955,56.9769789 C128.332955,56.9769789 100.192955,49.7869789 87.9729553,84.4069789 C75.7529553,119.026979 40.9729553,110.036979 40.9729553,137.546979 C40.9729553,154.196979 48.1229553,173.146979 54.0629553,185.486979 C59.0231657,188.807738 64.2986797,191.631395 69.8129553,193.916979 L70.0429553,193.756979 C70.0429553,193.756979 72.1229553,176.536979 84.6729553,168.116979 C97.2229553,159.696979 125.262955,151.436979 134.482955,144.486979 C143.192955,137.936979 161.152955,140.156979 164.052955,144.706979 C162.552955,141.556979 156.912955,130.446979 148.272955,131.376979 Z" id="Path" fill="#FFFFFF" opacity="0.4"></path>
                <path d="M164.012955,144.706979 C164.242955,145.226979 164.372955,145.536979 164.372955,145.536979 C164.301992,145.24153 164.180177,144.960677 164.012955,144.706979 L164.012955,144.706979 Z" id="Path" fill="#7E57C2"></path>
                <path d="M41.2229553,149.416979 L43.7029553,187.536979 C43.7029553,187.536979 59.3329553,189.226979 57.4629553,177.056979 C57.4629553,177.056979 56.6829553,175.776979 56.8629553,172.776979 C57.0429553,169.776979 60.5529553,154.136979 60.6829553,149.256979 L41.2229553,149.416979 Z" id="Path" fill="#FFA8A7"></path>
                <polygon id="Path" fill="#F28F8F" points="43.2529553 180.676979 45.2029553 182.126979 59.5029553 152.156979 57.4829553 149.286979 55.5329553 149.306979 51.9329553 152.156979 42.6729553 171.786979"></polygon>
                <path d="M42.7529553,187.676979 C42.7529553,187.676979 39.5229553,181.406979 44.1529553,179.766979 C48.7829553,178.126979 51.7029553,179.766979 52.0129553,181.496979 C52.3229553,183.226979 52.5229553,185.756979 52.5229553,185.756979 C54.9952954,183.410527 56.7147139,180.382402 57.4629553,177.056979 C57.4629553,177.056979 64.6429553,183.376979 64.0629553,186.656979 C63.4829553,189.936979 57.9829553,196.956979 57.3029553,199.156979 C56.6229553,201.356979 54.9529553,214.946979 48.1929553,216.906979 C41.4329553,218.866979 31.8129553,218.906979 34.1929553,211.206979 C35.0029553,208.546979 39.1929553,205.426979 40.1429553,202.806979 C41.0929553,200.186979 42.7529553,187.676979 42.7529553,187.676979 Z" id="Path" fill="#5145BA"></path>
                <path d="M54.7229553,208.966979 C52.3270007,203.463387 46.4584978,200.332414 40.5529553,201.406979 C40.4129553,202.006979 40.2829553,202.486979 40.1729553,202.806979 C39.2229553,205.426979 35.0329553,208.546979 34.2229553,211.206979 C31.8629553,218.946979 41.4829553,218.866979 48.2229553,216.906979 C51.3529553,215.996979 53.3929553,212.586979 54.7529553,208.966979 L54.7229553,208.966979 Z" id="Path" fill="#EBEBEB"></path>
                <path d="M63.2629553,183.756979 C63.3609981,184.132236 63.3814148,184.523556 63.3229553,184.906979 C62.6729553,188.326979 56.8129553,195.586979 56.0729553,197.906979 C55.3329553,200.226979 53.3829553,214.376979 46.2829553,216.336979 C43.0240566,217.292489 39.6060421,217.581575 36.2329553,217.186979 C39.1529553,218.586979 44.1729553,218.086979 48.2329553,216.926979 C54.9929553,214.926979 56.6729553,201.386979 57.3429553,199.176979 C58.0129553,196.966979 63.5329553,189.956979 64.1029553,186.676979 C64.1578257,185.637045 63.8620269,184.608792 63.2629553,183.756979 L63.2629553,183.756979 Z" id="Path" fill="#263238"></path>
                <path d="M50.9529553,189.586979 C50.8287796,189.585741 50.7101406,189.535409 50.6229553,189.446979 C47.4329553,186.266979 43.1129553,188.026979 42.9329553,188.096979 C42.6982343,188.19639 42.4273665,188.0867 42.3279553,187.851979 C42.228544,187.617258 42.3382343,187.34639 42.5729553,187.246979 C42.6229553,187.246979 47.6329553,185.166979 51.2829553,188.786979 C51.4154272,188.921305 51.4547415,189.121824 51.3828,189.296227 C51.3108585,189.470631 51.1416051,189.585116 50.9529553,189.586979 L50.9529553,189.586979 Z" id="Path" fill="#EBEBEB"></path>
                <path d="M50.5529553,193.136979 C50.4332428,193.137937 50.3180831,193.091153 50.2329553,193.006979 C47.0329553,189.826979 42.7129553,191.576979 42.5329553,191.656979 C42.419092,191.706455 42.2900645,191.707807 42.1751895,191.660727 C42.0603145,191.613648 41.9693467,191.522134 41.9229553,191.406979 C41.8258091,191.169493 41.9370837,190.897983 42.1729553,190.796979 C42.1729553,190.796979 47.2429553,188.716979 50.8829553,192.346979 C51.0622379,192.526558 51.0622379,192.817399 50.8829553,192.996979 C50.7985788,193.089457 50.6780901,193.140574 50.5529553,193.136979 Z" id="Path" fill="#EBEBEB"></path>
                <path d="M50.0329553,196.636979 C49.9100001,196.639501 49.791155,196.592683 49.7029553,196.506979 C46.5029553,193.316979 42.1929553,195.076979 42.0129553,195.156979 C41.7817922,195.232696 41.5310516,195.119522 41.4349182,194.896076 C41.3387847,194.672631 41.429027,194.412755 41.6429553,194.296979 C41.6929553,194.296979 46.7129553,192.216979 50.3529553,195.846979 C50.4443033,195.930346 50.4963495,196.048308 50.4963495,196.171979 C50.4963495,196.29565 50.4443033,196.413612 50.3529553,196.496979 C50.2708996,196.586817 50.1546251,196.637687 50.0329553,196.636979 Z" id="Path" fill="#EBEBEB"></path>
                <path d="M49.3029553,200.186979 C49.1787796,200.185741 49.0601406,200.135409 48.9729553,200.046979 C45.7729553,196.866979 41.4629553,198.626979 41.2829553,198.696979 C41.1311174,198.761287 40.9565056,198.739705 40.8248944,198.640364 C40.6932833,198.541022 40.6246677,198.379013 40.6448944,198.215363 C40.6651212,198.051714 40.7711174,197.911287 40.9229553,197.846979 C40.9729553,197.846979 45.9829553,195.756979 49.6329553,199.386979 C49.7654272,199.521305 49.8047415,199.721824 49.7328,199.896227 C49.6608585,200.070631 49.4916051,200.185116 49.3029553,200.186979 L49.3029553,200.186979 Z" id="Path" fill="#EBEBEB"></path>
                <path d="M108.702955,117.666979 L93.6029553,125.486979 L66.2529553,139.676979 C63.7873684,140.963124 61.9423624,143.1865 61.1329553,145.846979 C60.8466531,146.78067 60.6951242,147.750455 60.6829553,148.726979 L60.6829553,149.256979 C60.0725252,149.679306 59.4344229,150.060162 58.7729553,150.396979 C56.6489857,151.476494 54.3141831,152.077262 51.9329553,152.156979 C48.1814463,152.223954 44.4813817,151.277345 41.2229553,149.416979 C41.2229553,149.416979 41.1229553,144.896979 40.9329553,137.546979 C40.7429553,130.196979 47.0429553,126.746979 52.8129553,122.446979 C58.5829553,118.146979 89.5529553,105.006979 89.5529553,105.006979 L108.702955,117.666979 Z" id="Path" fill="#455A64"></path>
                <polygon id="Path" fill="#37474F" points="89.5529553 122.836979 106.302955 117.796979 108.702955 120.156979 90.9329553 126.876979"></polygon>
                <path d="M95.0029553,126.736979 L61.1329553,145.846979 L60.7629553,146.056979 L58.7629553,150.396979 C56.6389857,151.476494 54.3041831,152.077262 51.9229553,152.156979 L55.6329553,144.356979 C56.5314561,142.466779 57.9865234,140.896563 59.8029553,139.856979 L89.5429553,122.856979 C89.5429553,122.856979 89.3229553,117.856979 90.3229553,115.696979 C90.3229553,115.696979 90.4929553,121.976979 93.5929553,125.506979 C94.0028275,125.981193 94.4774968,126.395266 95.0029553,126.736979 L95.0029553,126.736979 Z" id="Path" fill="#37474F"></path>
                <path d="M49.5529553,162.136979 L27.9029553,207.746979 C27.9029553,207.746979 26.2029553,216.976979 32.2029553,216.976979 C38.2029553,216.976979 39.2029553,213.906979 39.2029553,213.906979 C39.2029553,213.906979 39.7729553,210.036979 44.8929553,202.906979 C50.0129553,195.776979 65.8329553,181.906979 69.2329553,172.006979 L49.5529553,162.136979 Z" id="Path" fill="#FFA8A7"></path>
                <path d="M137.702955,123.536979 C137.702955,123.536979 134.702955,136.656979 129.072955,141.196979 C123.442955,145.736979 118.832955,148.806979 99.9229553,152.806979 C87.4829553,155.426979 79.3729553,157.626979 75.2829553,158.806979 C73.3848014,159.357755 71.9508054,160.918961 71.5629553,162.856979 C70.9602916,165.89652 70.1924872,168.900971 69.2629553,171.856979 C69.2629553,171.856979 56.8729553,172.266979 49.6029553,162.006979 L56.7929553,148.246979 C58.6540875,144.671022 61.4366688,141.657135 64.8529553,139.516979 C73.2571513,134.168968 81.965178,129.314109 90.9329553,124.976979 C105.622955,118.146979 107.622955,116.896979 107.622955,116.896979 L137.702955,123.536979 Z" id="Path" fill="#455A64"></path>
                <path d="M89.8129553,73.0069789 L75.8129553,94.8869789 L86.4229553,105.006979 L102.232955,80.6269789 C102.232955,80.6269789 97.5529553,72.4769789 89.8129553,73.0069789 Z" id="Path" fill="#FFA8A7"></path>
                <path d="M89.8129553,73.0069789 C89.8129553,73.0069789 98.2129553,75.1969789 100.182955,80.6269789 L117.092955,60.1869789 L114.372955,50.2569789 C109.396013,49.4491632 104.365724,51.3545756 101.172955,55.2569789 C97.4929553,59.6069789 89.8129553,73.0069789 89.8129553,73.0069789 Z" id="Path" fill="#5145BA"></path>
                <path d="M89.8129553,73.0069789 C89.8129553,73.0069789 98.2129553,75.1969789 100.182955,80.6269789 L117.092955,60.1869789 L114.372955,50.2569789 C109.396013,49.4491632 104.365724,51.3545756 101.172955,55.2569789 C97.4929553,59.6069789 89.8129553,73.0069789 89.8129553,73.0069789 Z" id="Path" fill="#000000" opacity="0.2"></path>
                <path d="M118.332955,1.9869789 C118.332955,1.9869789 114.332955,-1.3130211 109.682955,3.7869789 C105.032955,8.8869789 109.312955,23.7869789 102.522955,22.9869789 C102.522955,22.9869789 106.982955,27.7669789 111.432955,24.4069789 C111.592961,24.2859124 111.77712,24.2006534 111.972955,24.1569789 C113.722955,23.8169789 115.332955,26.9669789 116.032955,28.0869789 C117.972955,31.1669789 119.652955,34.3869789 121.592955,37.4569789 C123.532955,40.5269789 125.972955,44.8069789 129.152955,46.7269789 C132.922955,49.0169789 138.592955,48.6669789 142.452955,46.8869789 C148.712955,44.0069789 153.072955,37.3469789 155.252955,31.0169789 C156.252955,28.2169789 157.112955,24.8869789 156.742955,21.9269789 C156.152955,17.2469789 152.682955,15.5969789 152.662955,15.8169789 C152.662955,15.8169789 154.152955,3.9369789 138.662955,1.0069789 C124.252955,-1.7330211 118.332955,1.9869789 118.332955,1.9869789 Z" id="Path" fill="#263238"></path>
                <path d="M138.882955,40.0769789 L137.252955,54.4969789 L141.962955,56.4969789 C141.962955,56.4969789 118.962955,68.0569789 113.652955,66.2969789 C108.342955,64.5369789 119.302955,50.6169789 119.302955,50.6169789 L121.962955,50.9469789 L122.312955,44.2669789 L138.882955,40.0769789 Z" id="Path" fill="#FFA8A7"></path>
                <path d="M134.622955,42.8269789 L128.382955,42.7369789 L122.312955,44.2769789 L122.052955,49.0669789 C131.942955,46.8469789 134.622955,42.8269789 134.622955,42.8269789 Z" id="Path" fill="#FF9090"></path>
                <path d="M118.302955,7.8169789 C118.302955,7.8169789 111.682955,10.8169789 110.002955,25.0169789 C108.322955,39.2169789 110.712955,45.7869789 119.632955,45.7869789 C126.802955,45.7869789 135.262955,44.7869789 138.882955,40.0769789 C139.762955,38.9169789 141.562955,10.9969789 134.002955,7.0769789 C126.442955,3.1569789 118.302955,7.8169789 118.302955,7.8169789 Z" id="Path" fill="#FFA8A7"></path>
                <path d="M118.302955,6.5669789 C118.302955,6.5669789 117.992955,21.7269789 135.222955,26.4369789 C135.222955,26.4369789 133.972955,34.4369789 138.822955,34.4369789 L143.552955,34.4369789 L143.552955,20.4369789 C143.552955,11.6446057 136.425329,4.5169789 127.632955,4.5169789 L120.432955,4.5169789 C119.269909,4.52245215 118.328429,5.46393271 118.322955,6.6269789 L118.302955,6.5669789 Z" id="Path" fill="#263238"></path>
                <polygon id="Path" fill="#FF9090" points="119.432955 24.4069789 119.432955 33.0469789 114.372955 31.4969789"></polygon>
                <circle id="Oval" fill="#263238" cx="124.662955" cy="27.3569789" r="1.31"></circle>
                <path d="M116.062955,25.1369789 C116.066998,25.6726675 115.746882,26.1576761 115.252733,26.3645474 C114.758585,26.5714186 114.188412,26.4591221 113.809612,26.0803223 C113.430812,25.7015224 113.318516,25.1313494 113.525387,24.6372007 C113.732258,24.143052 114.217267,23.8229358 114.752955,23.8269789 C115.100389,23.8269789 115.433593,23.9649964 115.679265,24.210669 C115.924938,24.4563417 116.062955,24.7895453 116.062955,25.1369789 L116.062955,25.1369789 Z" id="Path" fill="#263238"></path>
                <path d="M113.112955,20.2569789 L116.382955,19.3169789 C116.382955,19.3169789 115.592955,17.9069789 114.332955,18.3169789 C113.072955,18.7269789 113.112955,20.2569789 113.112955,20.2569789 Z" id="Path" fill="#263238"></path>
                <path d="M138.692955,33.1369789 C138.63592,31.7069843 138.89899,30.2823043 139.462955,28.9669789 C140.027164,27.2927046 141.532279,26.1137628 143.292955,25.9669789 C147.702955,25.8469789 148.292955,30.0969789 148.242955,31.6069789 C148.082955,35.6069789 144.862955,39.8769789 138.882955,40.0369789 L138.692955,33.1369789 Z" id="Path" fill="#FFAAA8"></path>
                <path d="M119.302955,50.6269789 L114.372955,50.2569789 C114.372955,50.2569789 95.9229553,63.9869789 97.1029553,73.5169789 C97.8029553,79.1169789 99.5129553,82.2569789 100.632955,83.7569789 C101.27905,84.6554104 101.508467,85.7879326 101.262955,86.8669789 C100.592955,89.8669789 99.1229553,95.4669789 97.0529553,98.0969789 C94.8402058,100.693801 92.3219789,103.013927 89.5529553,105.006979 C89.5529553,105.006979 95.1329553,115.216979 105.872955,120.516979 C116.612955,125.816979 133.922955,126.296979 137.702955,123.516979 L142.702955,94.8869789 L145.182955,57.9769789 L141.042955,56.0769789 C141.042955,56.0769789 121.232955,65.3869789 115.042955,64.8469789 C111.862955,64.5869789 119.302955,50.6269789 119.302955,50.6269789 Z" id="Path" fill="#5145BA"></path>
                <path d="M111.252955,85.9269789 C114.026755,87.9662139 117.401527,89.0219298 120.842955,88.9269789 C124.366267,88.9975124 127.791712,87.7654918 130.462955,85.4669789 C130.462955,85.4669789 127.832955,90.3769789 120.702955,90.3769789 C113.572955,90.3769789 111.252955,85.9269789 111.252955,85.9269789 Z" id="Path" fill="#000000" opacity="0.2"></path>
                <path d="M134.162955,91.2869789 L131.212955,104.226979 C125.144204,102.860799 119.004943,101.829243 112.822955,101.136979 C101.722955,99.8469789 99.5029553,99.1369789 99.5029553,99.1369789 L100.192955,111.196979 C100.192955,111.196979 113.642955,116.596979 125.962955,118.376979 C138.282955,120.156979 141.552955,119.696979 144.722955,109.676979 C147.892955,99.6569789 149.042955,95.6769789 149.042955,95.6769789 L134.162955,91.2869789 Z" id="Path" fill="#FFA8A7"></path>
                <path d="M145.142955,57.9969789 C145.142955,57.9969789 135.972955,64.5869789 136.992955,79.2369789 C136.992955,79.2369789 134.462955,90.2369789 134.162955,91.2369789 C134.162955,91.2369789 139.542955,95.4569789 149.042955,95.5969789 L155.122955,73.6569789 C156.490463,68.8170205 154.594746,63.6461494 150.422955,60.8369789 C148.745315,59.7445892 146.979144,58.7946033 145.142955,57.9969789 L145.142955,57.9969789 Z" id="Path" fill="#5145BA"></path>
                <path d="M136.992955,79.2369789 C136.992955,79.2369789 134.462955,90.2369789 134.162955,91.2369789 C134.162955,91.2369789 139.542955,95.4569789 149.042955,95.5969789 L155.122955,73.6569789 C156.490463,68.8170205 154.594746,63.6461494 150.422955,60.8369789 C148.745315,59.7445892 146.979144,58.7946033 145.142955,57.9969789 C145.142955,57.9969789 135.972955,64.5869789 136.992955,79.2369789 Z" id="Path" fill="#000000" opacity="0.2"></path>
                <path d="M97.4829553,115.576979 L97.2029553,114.286979 L91.6629553,88.4469789 C91.6629553,88.4469789 92.0729553,87.6169789 92.3629553,87.0069789 C92.5216682,87.1073117 92.6662785,87.2283808 92.7929553,87.3669789 C93.0829214,87.6885147 93.2890194,88.076666 93.3929553,88.4969789 L99.0429553,112.966979 L99.1329553,113.326979 C99.4829553,114.846979 97.4829553,115.576979 97.4829553,115.576979 Z" id="Path" fill="#37474F"></path>
                <path d="M92.7929553,87.3669789 L91.6629553,88.4469789 L78.1329553,83.9169789 L77.0129553,83.5469789 L77.6229553,82.9569789 C77.7187134,82.8536224 77.8300614,82.7658937 77.9529553,82.6969789 C78.3806134,82.4251825 78.9002637,82.3385741 79.3929553,82.4569789 L91.7729553,86.6969789 C92.162714,86.8333692 92.5129845,87.0634488 92.7929553,87.3669789 Z" id="Path" fill="#455A64"></path>
                <path d="M76.8229553,84.2169789 L82.9829553,108.836979 C83.2424734,109.866166 83.9896281,110.702979 84.9829553,111.076979 L96.7029553,115.606979 C97.0533807,115.756176 97.4581326,115.693363 97.7468566,115.444975 C98.0355806,115.196588 98.1581415,114.805757 98.0629553,114.436979 L92.3129553,89.6069789 C92.1238258,88.7633049 91.5105786,88.0781336 90.6929553,87.7969789 L77.7629553,83.3769789 C77.5150744,83.2827685 77.2353523,83.3345477 77.0376191,83.5112455 C76.8398858,83.6879433 76.7571019,83.9601057 76.8229553,84.2169789 L76.8229553,84.2169789 Z" id="Path" fill="#263238"></path>
                <path d="M39.1829553,213.886979 C37.1691554,215.111771 34.7177251,215.386185 32.4829553,214.636979 C32.4829553,214.636979 34.1129553,210.446979 31.0329553,208.636979 C27.9529553,206.826979 24.9329553,206.826979 24.1429553,209.416979 L23.3429553,212.006979 C23.3429553,212.006979 15.6029553,218.076979 12.6929553,219.936979 C9.78295529,221.796979 7.00295529,223.196979 4.83295529,224.596979 C2.66295529,225.996979 -2.91704471,230.056979 1.91295529,235.166979 C6.74295529,240.276979 21.1029553,237.646979 24.7429553,231.816979 C28.3829553,225.986979 38.8829553,228.816979 38.8829553,221.756979 C38.8829553,214.696979 39.1829553,213.886979 39.1829553,213.886979 Z" id="Path" fill="#5145BA"></path>
                <path d="M11.3529553,220.756979 C8.94295529,222.216979 6.66295529,223.396979 4.83295529,224.576979 C2.67295529,225.966979 -2.91704471,230.036979 1.91295529,235.146979 C5.62295529,239.086979 14.9829553,238.426979 20.7629553,235.256979 C20.9529553,223.506979 13.7929553,221.446979 11.3529553,220.756979 Z" id="Path" fill="#EBEBEB"></path>
                <path d="M25.0229553,230.006979 C21.1829553,236.146979 6.02295529,238.926979 0.972955291,233.536979 C0.742955291,233.296979 0.542955291,233.056979 0.352955291,232.816979 C0.720144528,233.685734 1.24959655,234.476518 1.91295529,235.146979 C6.74295529,240.266979 21.1029553,237.626979 24.7429553,231.796979 C28.2129553,226.256979 37.8629553,228.566979 38.8029553,222.706979 C35.9029553,226.056979 28.1229553,225.056979 25.0229553,230.006979 Z" id="Path" fill="#263238"></path>
                <path d="M29.2429553,218.326979 C29.0185718,218.326357 28.8259216,218.167211 28.7829553,217.946979 C27.9829553,213.486979 23.2929553,212.446979 23.2429553,212.436979 C22.9933856,212.382005 22.833474,212.137695 22.8829553,211.886979 C22.9379293,211.637409 23.1822387,211.477498 23.4329553,211.526979 C23.4929553,211.526979 28.7829553,212.716979 29.7029553,217.776979 C29.7453546,218.030627 29.5760249,218.271253 29.3229553,218.316979 L29.2429553,218.326979 Z" id="Path" fill="#EBEBEB"></path>
                <path d="M26.6629553,220.356979 C26.4385718,220.356357 26.2459216,220.197211 26.2029553,219.976979 C25.4029553,215.526979 20.7129553,214.486979 20.6629553,214.476979 C20.4133856,214.422005 20.253474,214.177695 20.3029553,213.926979 C20.3269583,213.805654 20.3988051,213.699105 20.5022856,213.631372 C20.6057661,213.56364 20.7321618,213.54043 20.8529553,213.566979 C20.9129553,213.566979 26.2029553,214.746979 27.1229553,219.806979 C27.1461237,219.929215 27.1187912,220.055623 27.0471928,220.157368 C26.9755943,220.259113 26.8658362,220.327518 26.7429553,220.346979 L26.6629553,220.356979 Z" id="Path" fill="#EBEBEB"></path>
                <path d="M23.7129553,222.646979 C23.4885718,222.646357 23.2959216,222.487211 23.2529553,222.266979 C22.4529553,217.826979 17.9129553,216.806979 17.7129553,216.766979 C17.4619723,216.707375 17.3029811,216.460055 17.3529553,216.206979 C17.3792402,216.087497 17.4520374,215.983408 17.5552498,215.917727 C17.6584622,215.852047 17.7835866,215.830186 17.9029553,215.856979 C17.9629553,215.856979 23.2529553,217.036979 24.1729553,222.096979 C24.1961237,222.219215 24.1687912,222.345623 24.0971928,222.447368 C24.0255943,222.549113 23.9158362,222.617518 23.7929553,222.636979 L23.7129553,222.646979 Z" id="Path" fill="#EBEBEB"></path>
                <path d="M21.1929553,224.546979 C20.9676951,224.544703 20.7772243,224.379629 20.7429553,224.156979 C19.9429553,219.726979 15.3929553,218.696979 15.2029553,218.656979 C14.9533856,218.602005 14.793474,218.357695 14.8429553,218.106979 C14.8669583,217.985654 14.9388051,217.879105 15.0422856,217.811372 C15.1457661,217.74364 15.2721618,217.72043 15.3929553,217.746979 C15.3929553,217.746979 20.7429553,218.936979 21.6529553,223.996979 C21.6762989,224.117741 21.650307,224.242823 21.5807847,224.344288 C21.5112623,224.445753 21.4040007,224.51515 21.2829553,224.536979 L21.1929553,224.546979 Z" id="Path" fill="#EBEBEB"></path>
                <path d="M118.302955,35.1369789 C120.073207,35.2538349 121.832084,34.7789381 123.302955,33.7869789 C123.302955,33.7869789 123.642955,36.4369789 121.432955,36.9369789 C119.222955,37.4369789 118.302955,35.1369789 118.302955,35.1369789 Z" id="Path" fill="#FF9090"></path>
                <path d="M78.6229553,95.9669789 C78.3829553,95.6069789 78.4929553,95.1169789 78.3829553,94.5369789 C78.1514015,93.5074075 77.756396,92.5215819 77.2129553,91.6169789 C77.0020978,91.1101251 76.6562077,90.6708447 76.2129553,90.3469789 C75.7357397,90.0265243 75.0951995,90.1076594 74.7129553,90.5369789 C74.5631516,90.8017045 74.4904093,91.1030655 74.5029553,91.4069789 C74.3925008,92.7902143 74.5107518,94.1821974 74.8529553,95.5269789 C75.1729553,96.5269789 74.5429553,97.8369789 74.4029553,98.8169789 C74.1729553,100.346979 74.7729553,100.986979 75.1329553,102.506979 C75.9629553,105.946979 78.7529553,107.506979 82.1329553,106.876979 C89.1329553,105.596979 88.8729553,96.2169789 87.9329553,94.9269789 C86.9929553,93.6369789 85.3929553,92.8669789 82.6829553,95.1169789 C81.8029553,95.8469789 80.3429553,96.7869789 79.1129553,96.3269789 C78.9142502,96.2645766 78.7418962,96.1379492 78.6229553,95.9669789 L78.6229553,95.9669789 Z" id="Path" fill="#FFA8A7"></path>
                <path d="M102.192955,100.076979 C100.533065,97.0858686 97.826371,94.81367 94.5929553,93.6969789 L95.5929553,97.8569789 C95.5929553,97.8569789 90.7229553,98.7969789 87.6429553,98.2469789 C84.5629553,97.6969789 78.9129553,94.1269789 79.8129553,98.1869789 C80.7129553,102.246979 81.6229553,104.926979 83.9429553,106.766979 C86.3933806,108.844342 89.4024001,110.152309 92.5929553,110.526979 C95.9229553,110.786979 100.232955,111.206979 100.232955,111.206979 L102.192955,100.076979 Z" id="Path" fill="#FFA8A7"></path>
                <path d="M83.9029553,106.996979 C83.8521729,106.99555 83.8031538,106.978043 83.7629553,106.946979 C81.4229553,105.086979 80.4729553,102.456979 79.5429553,98.2369789 C79.3429553,97.3269789 79.4429553,96.7069789 79.8529553,96.3569789 C80.6929553,95.6169789 82.5929553,96.3569789 84.6129553,97.0669789 C85.5849943,97.4789706 86.5881291,97.8133489 87.6129553,98.0669789 C88.0600169,98.1385985 88.5107108,98.1853371 88.9629553,98.2069789 C89.0899808,98.2069789 89.1929553,98.3099534 89.1929553,98.4369789 C89.1929553,98.5640044 89.0899808,98.6669789 88.9629553,98.6669789 C88.4898825,98.6520621 88.0185783,98.6019234 87.5529553,98.5169789 C86.490513,98.2698809 85.4503068,97.9354094 84.4429553,97.5169789 C82.7229553,96.8769789 80.7829553,96.1569789 80.1429553,96.7169789 C79.8829553,96.9469789 79.8329553,97.4269789 79.9829553,98.1469789 C80.8929553,102.256979 81.8029553,104.826979 84.0329553,106.586979 C84.1205763,106.67953 84.1205763,106.824428 84.0329553,106.916979 C84.0011907,106.959008 83.9547893,106.987563 83.9029553,106.996979 L83.9029553,106.996979 Z" id="Path" fill="#FF9090"></path>
                <path d="M152.172955,16.1369789 C156.338494,13.7665013 161.487306,13.9602113 165.462955,16.6369789 C169.348952,19.3877029 171.785278,23.7458961 172.092955,28.4969789 C172.822955,38.1869789 169.162955,41.0069789 165.472955,52.6169789 C164.262955,56.4169789 165.472955,60.9069789 175.142955,65.3769789 C175.142955,65.3769789 150.042955,70.2369789 154.342955,45.0169789 C157.462955,26.7169789 150.782955,27.3969789 150.782955,27.3969789 L152.172955,16.1369789 Z" id="Path" fill="#263238"></path>
            </g>
            <g id="freepik--Plant--inject-206" transform="translate(365.180000, 260.376019)">
                <path d="M31.82,53.64 C31.82,53.64 19.25,41.36 26.41,20.79 C30.41,9.26 43.71,0.79 51.28,0 C48.7689784,2.984252 46.768668,6.36315471 45.36,10 L35.83,16.34 L44.59,13.6 L42.73,21.1 C42.73,21.1 34.58,26.02 33.37,27.1 L42.15,24.8 C42.15,24.8 41.48,46.01 31.82,53.64 Z" id="Path" fill="#5145BA"></path>
                <path d="M31.82,53.64 C31.82,53.64 19.25,41.36 26.41,20.79 C30.41,9.26 43.71,0.79 51.28,0 C48.7689784,2.984252 46.768668,6.36315471 45.36,10 L35.83,16.34 L44.59,13.6 L42.73,21.1 C42.73,21.1 34.58,26.02 33.37,27.1 L42.15,24.8 C42.15,24.8 41.48,46.01 31.82,53.64 Z" id="Path" fill="#000000" opacity="0.4"></path>
                <path d="M31.82,53.64 C31.82,53.64 25.31,27.94 34.95,12.96 C34.95,12.96 23.67,26.18 31.82,53.64 Z" id="Path" fill="#FFFFFF"></path>
                <path d="M46.22,57.12 L30.83,56.93 L30.67,56.93 L15.29,57.12 C15.29,57.12 15.12,76.07 20.95,83.79 L20.95,83.79 C22.57,85.79 26.35,87.28 30.75,87.28 C35.15,87.28 38.95,85.83 40.56,83.78 C46.39,76.06 46.22,57.12 46.22,57.12 Z" id="Path" fill="#37474F"></path>
                <ellipse id="Oval" fill="#455A64" cx="30.75" cy="57.12" rx="15.46" ry="8.3"></ellipse>
                <path d="M30.75,54.92 C36.07,54.92 40.58,56.62 42.16,58.99 C42.5511106,58.443755 42.7672978,57.7917066 42.78,57.12 C42.78,53.84 37.4,51.18 30.78,51.18 C24.16,51.18 18.78,53.84 18.78,57.12 C18.7927022,57.7917066 19.0088894,58.443755 19.4,58.99 C20.92,56.62 25.43,54.92 30.75,54.92 Z" id="Path" fill="#263238"></path>
                <path d="M30.75,54.92 C25.43,54.92 20.92,56.62 19.34,58.99 C20.92,61.35 25.43,63.06 30.75,63.06 C36.07,63.06 40.58,61.35 42.16,58.99 C40.58,56.62 36.07,54.92 30.75,54.92 Z" id="Path" fill="#E0E0E0"></path>
                <path d="M30.94,60.01 C30.94,60.01 24.94,59.78 19.87,51.87 C17.76,48.6 16.74,46.87 16.74,46.87 L25.05,46.25 L15.74,43.92 L11.35,37.2 L19.07,36.62 C19.07,36.62 13.32,34.62 9.21,34.62 C9.21,34.62 2.09,22.04 0,20.24 C10.8881193,20.9166919 21.0404007,25.9657839 28.15,34.24 C39.86,48.05 32.67,60.37 30.94,60.01 Z" id="Path" fill="#5145BA"></path>
                <path d="M30.94,60.01 C30.94,60.01 34.67,37.56 10.88,24.06 C10.88,24.06 35.57,35.92 30.94,60.01 Z" id="Path" fill="#FFFFFF"></path>
                <path d="M30.94,60.01 C30.94,60.01 36.34,60.36 41.7,53.7 C43.91,50.96 44.98,49.51 44.98,49.51 L37.55,48.17 L46.16,46.94 L50.76,41.29 L43.85,40.05 C43.85,40.05 49.23,38.77 52.94,39.13 C52.94,39.13 60.55,28.45 62.6,27.03 C52.7111261,26.6168325 43.0761154,30.2240997 35.89,37.03 C24.02,48.38 29.34,60.17 30.94,60.01 Z" id="Path" fill="#5145BA"></path>
                <path d="M30.94,60.01 C30.94,60.01 36.34,60.36 41.7,53.7 C43.91,50.96 44.98,49.51 44.98,49.51 L37.55,48.17 L46.16,46.94 L50.76,41.29 L43.85,40.05 C43.85,40.05 49.23,38.77 52.94,39.13 C52.94,39.13 60.55,28.45 62.6,27.03 C52.7111261,26.6168325 43.0761154,30.2240997 35.89,37.03 C24.02,48.38 29.34,60.17 30.94,60.01 Z" id="Path" fill="#000000" opacity="0.2"></path>
                <path d="M30.94,60.01 C30.94,60.01 29.67,39.4 52.42,29.46 C52.42,29.46 29.03,37.84 30.94,60.01 Z" id="Path" fill="#FFFFFF"></path>
            </g>
            <g id="freepik--Device--inject-206" transform="translate(59.520000, 0.000000)">
                <path d="M24.72,319.746019 L126.49,260.996019 C133.67,256.846019 139.49,245.726019 139.49,236.156019 L139.49,18.226019 C139.49,8.65601901 133.67,4.22601901 126.49,8.40601901 L24.72,67.156019 C17.54,71.306019 11.72,82.426019 11.72,91.996019 L11.72,309.936019 C11.72,319.496019 17.54,323.936019 24.72,319.746019 Z" id="Path" fill="#455A64"></path>
                <path d="M13,60.326019 L114.77,1.56601901 C117.84,-0.203980988 120.66,-0.433980988 122.88,0.676019012 L122.88,0.676019012 C123.155065,0.808254776 123.419224,0.962069062 123.67,1.13601901 L135.07,7.75601901 C132.78,6.39601901 129.77,6.48601901 126.48,8.39601901 L24.72,67.156019 C17.54,71.306019 11.72,82.426019 11.72,91.996019 L11.72,309.936019 C11.72,314.996019 13.35,318.606019 15.94,320.276019 L4.69,313.726019 L4.69,313.726019 C1.82,312.196019 0,308.456019 0,303.096019 L0,85.166019 C0,75.596019 5.82,64.476019 13,60.326019 Z" id="Path" fill="#37474F"></path>
                <path d="M11.72,91.996019 L11.72,309.936019 C11.72,314.996019 13.35,318.606019 15.94,320.276019 L4.69,313.726019 L4.69,313.726019 C1.82,312.196019 0,308.456019 0,303.096019 L0,85.166019 L0,85.166019 L11.72,91.936019 L11.72,91.996019 Z" id="Path" fill="#263238"></path>
                <polygon id="Path" fill="#37474F" points="0 102.086019 11.72 108.856019 11.72 114.136019 0 107.366019"></polygon>
                <path d="M5.13,137.246019 L5.13,137.246019 C6.13,137.846019 7.03,137.246019 7.03,135.806019 L7.03,124.446019 C7.00810979,123.003191 6.30311408,121.656278 5.13,120.816019 L5.13,120.816019 C4.13,120.216019 3.24,120.816019 3.24,122.256019 L3.24,133.616019 C3.26272535,135.056257 3.96313583,136.40149 5.13,137.246019 L5.13,137.246019 Z" id="Path" fill="#37474F"></path>
                <path d="M7.03,135.806019 L7.03,124.446019 C7.00810979,123.003191 6.30311408,121.656278 5.13,120.816019 C4.78038007,120.572357 4.32836101,120.530573 3.94,120.706019 L3.94,120.706019 L5.33,119.936019 L5.33,119.936019 C5.72522935,119.736919 6.1979616,119.771509 6.56,120.026019 C7.73435753,120.865196 8.43970737,122.212786 8.46,123.656019 L8.46,135.016019 C8.5231802,135.599168 8.28127487,136.173693 7.82,136.536019 L7.82,136.536019 L6.33,137.306019 L6.33,137.306019 C6.81539906,136.967691 7.0824865,136.395361 7.03,135.806019 L7.03,135.806019 Z" id="Path" fill="#455A64"></path>
                <path d="M5.13,164.756019 L5.13,164.756019 C6.13,165.366019 7.03,164.756019 7.03,163.326019 L7.03,151.936019 C7.0097536,150.495514 6.30403944,149.150942 5.13,148.316019 L5.13,148.316019 C4.13,147.706019 3.24,148.316019 3.24,149.746019 L3.24,161.136019 C3.26270961,162.573514 3.9634702,163.915712 5.13,164.756019 L5.13,164.756019 Z" id="Path" fill="#37474F"></path>
                <path d="M7.03,163.326019 L7.03,151.936019 C7.0097536,150.495514 6.30403944,149.150942 5.13,148.316019 C4.78184053,148.06839 4.32765234,148.026407 3.94,148.206019 L3.94,148.206019 L5.36,147.476019 L5.36,147.476019 C5.75522935,147.276919 6.2279616,147.311509 6.59,147.566019 C7.76311408,148.406278 8.46810979,149.753191 8.49,151.196019 L8.49,162.556019 C8.5551512,163.139455 8.31285737,163.714903 7.85,164.076019 L7.85,164.076019 L6.36,164.856019 L6.36,164.856019 C6.84751775,164.507887 7.10478763,163.92039 7.03,163.326019 L7.03,163.326019 Z" id="Path" fill="#455A64"></path>
                <path d="M28.26,73.286019 L128.33,15.526019 C129.183015,15.0614674 130.217427,15.0794966 131.053735,15.5734921 C131.890043,16.0674877 132.405122,16.9647216 132.41,17.936019 L132.41,236.156019 C132.41,243.436019 127.25,252.386019 120.94,256.026019 L23.33,312.366019 C22.3934927,312.936533 21.22032,312.950611 20.2703915,312.402736 C19.320463,311.85486 18.7451546,310.832338 18.7692266,309.736019 L18.7692266,89.676019 C18.79,83.666019 23.05,76.296019 28.26,73.286019 Z" id="Path" fill="#5145BA"></path>
                <path d="M28.26,73.286019 L128.33,15.526019 C129.183015,15.0614674 130.217427,15.0794966 131.053735,15.5734921 C131.890043,16.0674877 132.405122,16.9647216 132.41,17.936019 L132.41,236.156019 C132.41,243.436019 127.25,252.386019 120.94,256.026019 L23.33,312.366019 C22.3934927,312.936533 21.22032,312.950611 20.2703915,312.402736 C19.320463,311.85486 18.7451546,310.832338 18.7692266,309.736019 L18.7692266,89.676019 C18.79,83.666019 23.05,76.296019 28.26,73.286019 Z" id="Path" fill="#FFFFFF" opacity="0.5"></path>
                <polygon id="Path" fill="#455A64" points="98.37 30.606019 96.82 37.136019 63.67 56.246019 57.95 53.196019"></polygon>
                <path d="M88.63,36.936019 C88.63,38.016019 89.39,38.456019 90.32,37.936019 C91.3233827,37.2834757 91.9549934,36.1911607 92.02,34.996019 C92.02,33.916019 91.26,33.476019 90.32,33.996019 C89.322829,34.653051 88.6959088,35.7436696 88.63,36.936019 L88.63,36.936019 Z" id="Path" fill="#263238"></path>
                <path d="M66.33,50.7160371 C66.5115035,50.7170702 66.6903445,50.6723599 66.85,50.586019 L83.78,41.116019 C84.0270867,40.9811332 84.2096625,40.7526802 84.2867499,40.4819339 C84.3638374,40.2111877 84.3289796,39.9208264 84.19,39.676019 C83.9050927,39.1657626 83.2609522,38.9823614 82.75,39.266019 L65.81,48.726019 C65.303031,49.0184255 65.1212149,49.6614337 65.4,50.176019 C65.5904569,50.5100432 65.9454926,50.7161929 66.33,50.7160371 L66.33,50.7160371 Z" id="Path" fill="#263238"></path>
            </g>
            <g id="freepik--Screen--inject-206" transform="translate(95.848910, 17.301028)">
                <path d="M116.17109,254.224991 C94.3110897,267.224991 37.4310897,301.224991 9.28108966,318.164991 C7.57273614,319.192376 5.44364633,319.220774 3.70849894,318.239318 C1.97335156,317.257862 0.90108957,315.418478 0.90108957,313.424991 L0.90108957,78.2049909 C0.90108957,72.7569841 3.78949543,67.7174064 8.49108966,64.9649909 L116.68109,1.55499094 C118.39064,0.556027557 120.503826,0.547301653 122.221568,1.53211284 C123.93931,2.51692402 124.999443,4.34496879 125.00111,6.32499094 L125.00111,238.634991 C125.010602,245.024567 121.655985,250.947385 116.17109,254.224991 Z" id="Path" fill="#F5F5F5"></path>
                <path d="M115.73109,253.474991 C98.5777563,263.714991 81.4210897,273.961658 64.2610897,284.214991 L33.8010897,302.434991 L19.8910897,310.774991 L13.8110897,314.434991 C11.9610897,315.544991 9.99108966,317.114991 7.96108966,317.844991 C4.74108966,318.984991 1.86108966,316.384991 1.77108966,313.224991 C1.77108966,312.674991 1.77108966,312.134991 1.77108966,311.584991 L1.77108966,95.9149909 C1.77108966,90.1749909 1.77108966,84.4349909 1.77108966,78.6849909 C1.69055286,73.273541 4.54481822,68.2422287 9.23108966,65.5349909 C11.7110897,64.0649909 14.2310897,62.6149909 16.6910897,61.1649909 L51.6410897,40.6349909 L93.0610897,16.3649909 C100.91109,11.7649909 108.75109,7.12499094 116.63109,2.55499094 C118.91109,1.22499094 121.77109,1.31499094 123.38109,3.71499094 C123.957919,4.67793928 124.223342,5.7955108 124.14109,6.91499094 C124.14109,8.91499094 124.14109,11.0149909 124.14109,13.0649909 L124.14109,237.764991 C124.14109,244.214991 121.34109,250.034991 115.73109,253.474991 C114.78109,254.064991 115.65109,255.564991 116.61109,254.974991 C122.510757,251.33263 126.038442,244.836665 125.88109,237.904991 L125.88109,23.3649909 C125.88109,17.7749909 125.94109,12.1849909 125.88109,6.60499094 C125.915993,4.21311845 124.636299,1.99477992 122.548264,0.827568434 C120.460229,-0.339643054 117.900255,-0.267679032 115.88109,1.01499094 C113.28109,2.51499094 110.70109,4.01499094 108.10109,5.57499094 L72.1910897,26.6349909 L30.4010897,51.1149909 C23.0110897,55.4449909 15.5910897,59.7449909 8.23108966,64.1149909 C3.07561324,67.122205 -0.0671678355,72.6669415 -1.42108547e-14,78.6349909 C-1.42108547e-14,80.5549909 -1.42108547e-14,82.4849909 -1.42108547e-14,84.4049909 L-1.42108547e-14,312.304991 C-1.42108547e-14,312.674991 -1.42108547e-14,313.044991 -1.42108547e-14,313.414991 C0.0225729236,315.456755 1.00809179,317.368164 2.65891979,318.569841 C4.3097478,319.771517 6.43151859,320.121977 8.38108966,319.514991 C10.3810897,318.834991 12.3810897,317.304991 14.2010897,316.194991 L20.4010897,312.474991 L34.2710897,304.154991 C54.484423,292.048324 74.7077563,279.958324 94.9410897,267.884991 L116.57109,254.974991 C116.908347,254.710358 117.002569,254.239492 116.793111,253.865459 C116.583652,253.491426 116.132949,253.325718 115.73109,253.474991 L115.73109,253.474991 Z" id="Path" fill="#E0E0E0"></path>
                <path d="M59.8610897,280.824991 L66.8610897,276.824991 C68.2878895,275.805383 69.1453195,274.168471 69.1710897,272.414991 L69.1710897,265.194991 C69.1710897,263.494991 68.1710897,262.714991 66.8610897,263.454991 L59.8610897,267.454991 C58.4355317,268.47568 57.5784555,270.111916 57.5510897,271.864991 L57.5510897,279.074991 C57.5510897,280.784991 58.5910897,281.564991 59.8610897,280.824991 Z" id="Path" fill="#E0E0E0"></path>
                <path d="M63.3410897,275.544991 C63.7671671,275.267431 64.0347835,274.802819 64.0610897,274.294991 L64.0610897,269.134991 C64.0610897,268.674991 63.7410897,268.494991 63.3410897,268.724991 C62.9150122,269.002551 62.6473958,269.467163 62.6210897,269.974991 L62.6210897,275.134991 C62.6210897,275.634991 62.9410897,275.774991 63.3410897,275.544991 Z" id="Path" fill="#FFFFFF"></path>
                <path d="M61.1110897,274.254991 L65.5710897,271.674991 C65.99977,271.398514 66.2709281,270.934203 66.3010897,270.424991 C66.3010897,269.964991 65.9710897,269.784991 65.5710897,270.014991 L61.1110897,272.634991 C60.6824093,272.911468 60.4112512,273.375779 60.3810897,273.884991 C60.3810897,274.304991 60.7110897,274.484991 61.1110897,274.254991 Z" id="Path" fill="#FFFFFF"></path>
                <path d="M41.6110897,280.004991 C42.1507857,279.518141 42.9423574,279.433567 43.5727291,279.795405 C44.2031007,280.157243 44.5292949,280.883422 44.3810897,281.594991 C44.3481601,282.559151 44.0693356,283.498892 43.5710897,284.324991 C43.0955205,285.174354 42.4060289,285.884531 41.5710897,286.384991 C40.9944814,286.820935 40.2226056,286.898123 39.5710897,286.584991 C38.4910897,285.964991 38.4910897,283.934991 39.5710897,282.064991 C40.0455253,281.214783 40.7352731,280.504343 41.5710897,280.004991 M41.5710897,278.334991 C40.3192185,279.108128 39.2863645,280.189182 38.5710897,281.474991 C36.9210897,284.324991 36.9210897,287.404991 38.5710897,288.344991 C39.5505997,288.794126 40.6957449,288.683428 41.5710897,288.054991 C42.824668,287.283964 43.8580004,286.202409 44.5710897,284.914991 C46.2110897,282.064991 46.2110897,278.984991 44.5710897,278.034991 C43.589818,277.58874 42.4445637,277.703265 41.5710897,278.334991 L41.5710897,278.334991 Z" id="Shape" fill="#E0E0E0"></path>
                <path d="M35.4910897,294.634991 C35.7042283,294.50127 35.879756,294.315417 36.0010897,294.094991 L39.1510897,288.644991 C39.4310897,288.154991 39.4310897,287.644991 39.1510897,287.464991 C38.8710897,287.284991 38.4110897,287.564991 38.1510897,288.054991 L35.0010897,293.504991 C34.7210897,293.994991 34.7210897,294.504991 35.0010897,294.684991 C35.1627179,294.749841 35.345891,294.73115 35.4910897,294.634991 L35.4910897,294.634991 Z" id="Path" fill="#E0E0E0"></path>
                <path d="M80.8310897,255.344991 C82.5710897,254.344991 83.9810897,255.444991 83.9810897,257.814991 C84.0037552,255.397036 85.1727057,253.133354 87.1310897,251.714991 C88.8710897,250.714991 90.2810897,251.814991 90.2810897,254.174991 C90.2810897,260.174991 83.9810897,266.414991 83.9810897,266.414991 C83.9810897,266.414991 77.6910897,267.474991 77.6910897,261.414991 C77.724026,259.010217 78.8873748,256.761323 80.8310897,255.344991 Z" id="Path" fill="#E0E0E0"></path>
                <path d="M102.67109,244.684991 C102.67109,246.464991 103.92109,247.184991 105.46109,246.294991 C107.108502,245.222401 108.145053,243.427941 108.25109,241.464991 C108.25109,239.684991 107.00109,238.964991 105.46109,239.854991 C103.813678,240.927581 102.777126,242.722041 102.67109,244.684991 Z" id="Path" fill="#E0E0E0"></path>
                <path d="M105.46109,246.294991 L105.46109,246.294991 C107.74109,244.984991 109.59109,246.374991 109.59109,249.414991 L109.59109,250.354991 L101.33109,255.124991 L101.33109,254.174991 C101.33109,251.144991 103.18109,247.634991 105.46109,246.294991 Z" id="Path" fill="#E0E0E0"></path>
                <path d="M19.7510897,290.944991 L25.3210897,292.784991 L25.3210897,300.634991 L21.0010897,303.074991 L21.0010897,298.824991 C21.0010897,298.024991 20.4410897,297.704991 19.7510897,298.104991 C19.0125707,298.587935 18.5483353,299.393848 18.5010897,300.274991 L18.5010897,304.514991 L14.1910897,307.004991 L14.1910897,299.204991 L19.7510897,290.944991 Z" id="Path" fill="#E0E0E0"></path>
                <path d="M0.901089663,295.315106 C0.693558829,295.318455 0.501134204,295.206848 0.401089663,295.024991 C0.321523002,294.891373 0.29894824,294.731399 0.338432992,294.580981 C0.377917744,294.430563 0.476154044,294.302302 0.611089663,294.224991 L124.68109,222.634991 C124.962995,222.476775 125.319725,222.574876 125.48109,222.854991 C125.560656,222.988609 125.583231,223.148583 125.543746,223.299001 C125.504262,223.449419 125.406025,223.57768 125.27109,223.654991 L1.20108966,295.234991 C1.1106287,295.2894 1.00663108,295.317133 0.901089663,295.315106 Z" id="Path" fill="#E0E0E0"></path>
                <path d="M8.49108966,64.9649909 L116.68109,1.55499094 C118.39064,0.556027557 120.503826,0.547301653 122.221568,1.53211284 C123.93931,2.51692402 124.999443,4.34496879 125.00109,6.32499094 L125.00109,16.5349909 L125.00109,16.5349909 L0.901089663,88.1649909 L0.901089663,78.1649909 C0.914673105,72.7312681 3.8017979,67.7101815 8.49108966,64.9649909 Z" id="Path" fill="#E0E0E0"></path>
            </g>
            <g id="form" transform="translate(105.584447, 59.535833)">
                <g id="Group" opacity="0.15" transform="translate(0.505553, 26.987050)" fill="#000000">
                    <path d="M2.15,23.4131365 L42.15,0.313136513 C43.34,-0.376863487 44.3,0.113136513 44.3,1.39313651 C44.194396,2.85814355 43.395527,4.1846377 42.15,4.96313651 L2.15,28.0731365 C0.96,28.7531365 0,28.2731365 0,26.9831365 C0.108767187,25.5191342 0.906840497,24.1939613 2.15,23.4131365 Z" id="Path"></path>
                </g>
                <g id="Group" opacity="0.15" transform="translate(4.525553, 50.527050)" fill="#000000">
                    <path d="M2.15,13.8731365 L25.68,0.313136513 C26.87,-0.376863487 27.83,0.113136513 27.83,1.39313651 C27.724396,2.85814355 26.925527,4.1846377 25.68,4.96313651 L2.15,18.5231365 C0.96,19.2131365 0,18.7231365 0,17.4431365 C0.105604004,15.9781295 0.904473033,14.6516353 2.15,13.8731365 Z" id="Path"></path>
                </g>
                <path d="M0.505552937,61.470261 C0.32951047,61.4732514 0.165357455,61.3816311 0.0755529374,61.2301864 C-0.0553693498,60.9917851 0.023828535,60.692593 0.255552937,60.5501864 L105.015553,0.0701864034 C105.129108,0.00183487974 105.265509,-0.0175999592 105.393636,0.0163159587 C105.521763,0.0502318765 105.630686,0.134605311 105.695553,0.250186403 C105.824717,0.491140373 105.740909,0.79108363 105.505553,0.930186403 L0.755552937,61.4001864 C0.679151967,61.4435026 0.593338758,61.4675303 0.505552937,61.470261 L0.505552937,61.470261 Z" id="Path" fill="#E0E0E0"></path>
                <path d="M0.505552937,80.0704342 C0.27875693,80.0773654 0.0766999999,79.9278933 0.0171975525,79.7089243 C-0.0423048948,79.4899553 0.056314592,79.2587776 0.255552937,79.1501864 L105.015553,18.6701864 C105.129108,18.6018349 105.265509,18.5824 105.393636,18.616316 C105.521763,18.6502319 105.630686,18.7346053 105.695553,18.8501864 C105.824717,19.0911404 105.740909,19.3910836 105.505553,19.5301864 L0.755552937,80.0101864 C0.678265449,80.0500219 0.592501488,80.0704342 0.505552937,80.0704342 L0.505552937,80.0704342 Z" id="Path" fill="#E0E0E0"></path>
                <path d="M89.5055529,16.7401864 C90.5055529,16.1601864 91.3255529,16.6301864 91.3255529,17.7401864 C91.2537064,19.0195507 90.5732828,20.1870535 89.4955529,20.8801864 C88.4955529,21.4601864 87.6655529,20.9801864 87.6755529,19.8301864 C87.7629128,18.5688516 88.4414777,17.4230781 89.5055529,16.7401864 Z" id="Path" fill="#455A64"></path>
                <path d="M88.3155529,22.6801865 C87.9857749,22.6801865 87.6617096,22.5941009 87.3755529,22.4301864 C86.7046644,21.9937737 86.32215,21.2287449 86.3755529,20.4301864 C86.5179116,18.2878294 87.6828695,16.3449924 89.5055529,15.2101864 L95.6555529,11.6401864 C96.3887636,11.1144491 97.3490049,11.0264589 98.1655529,11.4101864 C98.8348083,11.8480554 99.216811,12.6120607 99.1655529,13.4101864 C99.0258676,15.5559762 97.8557098,17.5012703 96.0255529,18.6301864 L89.9055529,22.2001864 C89.4280369,22.4995456 88.8789499,22.6653077 88.3155529,22.6801865 L88.3155529,22.6801865 Z M87.0655529,20.4001864 C87.0119934,20.964221 87.2588459,21.514892 87.7155529,21.8501864 C88.3212494,22.09282 89.0092596,22.0058737 89.5355529,21.6201864 L95.6655529,18.0501864 C97.2812993,17.0391844 98.3205882,15.320646 98.4655529,13.4201864 C98.5303325,12.8594599 98.2851712,12.3078472 97.8255529,11.9801864 C97.2206414,11.731544 96.5295912,11.8188746 96.0055529,12.2101864 L89.8555529,15.7701864 C88.2436246,16.7834382 87.2082733,18.5016019 87.0655529,20.4001864 L87.0655529,20.4001864 Z" id="Shape" fill="#455A64"></path>
                <g id="Group" opacity="0.15" transform="translate(4.525553, 61.907342)" fill="#000000">
                    <path d="M2.15,21.1028448 L38.15,0.312844811 C39.34,-0.377155189 40.3,0.112844811 40.3,1.40284481 C40.1928866,2.86473741 39.3939955,4.18755235 38.15,4.96284481 L2.15,25.7628448 C0.96,26.4428448 0,25.9528448 0,24.6728448 C0.105604004,23.2078378 0.904473033,21.8813436 2.15,21.1028448 L2.15,21.1028448 Z" id="Path"></path>
                </g>
                <path d="M0.505552937,98.660261 C0.32951047,98.6632514 0.165357455,98.5716311 0.0755529374,98.4201864 C-0.0553693498,98.1817851 0.023828535,97.882593 0.255552937,97.7401864 L105.015553,37.2601864 C105.129108,37.1918349 105.265509,37.1724 105.393636,37.206316 C105.521763,37.2402319 105.630686,37.3246053 105.695553,37.4401864 C105.824717,37.6811404 105.740909,37.9810836 105.505553,38.1201864 L0.755552937,98.6001864 C0.678265449,98.6400219 0.592501488,98.660261 0.505552937,98.660261 L0.505552937,98.660261 Z" id="Path" fill="#E0E0E0"></path>
                <path d="M88.3155529,41.2701864 C87.9851505,41.2752143 87.6598045,41.1886861 87.3755529,41.0201864 C86.703014,40.5852492 86.3199793,39.8191798 86.3755529,39.0201864 C86.5147756,36.8742144 87.6801192,34.927011 89.5055529,33.7901864 L95.6555529,30.2301864 C96.3860964,29.6990981 97.3476042,29.6071611 98.1655529,29.9901864 C98.8348083,30.4280554 99.216811,31.1920607 99.1655529,31.9901864 C99.0258676,34.1359762 97.8557098,36.0812703 96.0255529,37.2101864 L89.9055529,40.7801864 C89.4290461,41.0830672 88.8798895,41.2523042 88.3155529,41.2701864 L88.3155529,41.2701864 Z" id="Path" fill="#5145BA"></path>
                <path d="M96.0855529,31.4801864 C97.0855529,30.9001864 97.9055529,31.3701864 97.9055529,32.4801864 C97.8337064,33.7595507 97.1532828,34.9270535 96.0755529,35.6201864 C95.0755529,36.2001864 94.2555529,35.7201864 94.2555529,34.5701864 C94.3535856,33.3122007 95.0295446,32.1708273 96.0855529,31.4801864 L96.0855529,31.4801864 Z" id="Path" fill="#FAFAFA"></path>
                <path d="M88.3155529,78.4503 C87.9866187,78.4538027 87.662493,78.3710472 87.3755529,78.2101864 C86.7079137,77.7708801 86.3264144,77.0078815 86.3755529,76.2101864 C86.5147756,74.0642144 87.6801192,72.117011 89.5055529,70.9801864 L95.6655529,67.4001864 C96.3972035,66.8702781 97.3597809,66.7820738 98.1755529,67.1701864 C98.8497598,67.6036283 99.2333235,68.3707558 99.1755529,69.1701864 C99.0358676,71.3159762 97.8657098,73.2612703 96.0355529,74.3901864 L89.9155529,77.9601864 C89.4361499,78.2647826 88.883309,78.4340901 88.3155529,78.4503 L88.3155529,78.4503 Z" id="Path" fill="#5145BA"></path>
                <path d="M96.0855529,68.6601864 C97.0855529,68.0801864 97.9055529,68.5501864 97.9055529,69.7201864 C97.8337064,70.9995507 97.1532828,72.1670535 96.0755529,72.8601864 C95.0755529,73.4301864 94.2555529,72.9601864 94.2555529,71.8001864 C94.3399556,70.524629 95.0173245,69.3623677 96.0855529,68.6601864 L96.0855529,68.6601864 Z" id="Path" fill="#FAFAFA"></path>
                <path d="M88.3155529,97.0403 C87.9866187,97.0438027 87.662493,96.9610472 87.3755529,96.8001864 C86.7079137,96.3608801 86.3264144,95.5978815 86.3755529,94.8001864 C86.5180167,92.6552256 87.6825419,90.7093895 89.5055529,89.5701864 L95.6555529,86.0101864 C96.3887636,85.4844491 97.3490049,85.3964589 98.1655529,85.7801864 C98.8397598,86.2136283 99.2233235,86.9807558 99.1655529,87.7801864 C99.0241076,89.9280571 97.8548086,91.8756474 96.0255529,93.0101864 L89.9055529,96.5701864 C89.4270331,96.8660282 88.8780142,97.0283168 88.3155529,97.0403 L88.3155529,97.0403 Z" id="Path" fill="#5145BA"></path>
                <path d="M96.0855529,87.2601864 C97.0855529,86.6701864 97.9055529,87.1501864 97.9055529,88.2601864 C97.8337064,89.5395507 97.1532828,90.7070535 96.0755529,91.4001864 C95.0755529,91.9701864 94.2555529,91.5001864 94.2555529,90.3501864 C94.3505832,89.0912535 95.0272708,87.9486498 96.0855529,87.2601864 Z" id="Path" fill="#FAFAFA"></path>
                <g id="Group" opacity="0.15" transform="translate(4.525553, 87.727342)" fill="#000000">
                    <path d="M2.15,13.8728448 L25.68,0.312844811 C26.87,-0.377155189 27.83,0.112844811 27.83,1.40284481 C27.7228866,2.86473741 26.9239955,4.18755235 25.68,4.96284481 L2.15,18.5328448 C0.96,19.2128448 0,18.7228448 0,17.4428448 C0.108767187,15.9788425 0.906840497,14.6536696 2.15,13.8728448 Z" id="Path"></path>
                </g>
                <path d="M0.505552937,117.260186 C0.327997408,117.259115 0.164329085,117.163959 0.0755529374,117.010186 C-0.0553693498,116.771785 0.023828535,116.472593 0.255552937,116.330186 L105.015553,55.8501864 C105.129108,55.7818349 105.265509,55.7624 105.393636,55.796316 C105.521763,55.8302319 105.630686,55.9146053 105.695553,56.0301864 C105.824717,56.2711404 105.740909,56.5710836 105.505553,56.7101864 L0.755552937,117.190186 C0.678999452,117.233135 0.593278199,117.257137 0.505552937,117.260186 Z" id="Path" fill="#E0E0E0"></path>
                <path d="M89.5055529,53.9201864 C90.5055529,53.3401864 91.3255529,53.8101864 91.3255529,54.9801864 C91.2537064,56.2595507 90.5732828,57.4270535 89.4955529,58.1201864 C88.4955529,58.6901864 87.6655529,58.2201864 87.6755529,57.0601864 C87.7473995,55.7808221 88.4278231,54.6133193 89.5055529,53.9201864 Z" id="Path" fill="#455A64"></path>
                <path d="M88.3155529,59.8603 C87.9866187,59.8638027 87.662493,59.7810472 87.3755529,59.6201864 C86.7079137,59.1808801 86.3264144,58.4178815 86.3755529,57.6201864 C86.5147756,55.4742144 87.6801192,53.527011 89.5055529,52.3901864 L95.6555529,48.8301864 C96.3856001,48.2960224 97.3505842,48.2075976 98.1655529,48.6001864 C98.8397598,49.0336283 99.2233235,49.8007558 99.1655529,50.6001864 C99.0258676,52.7459762 97.8557098,54.6912703 96.0255529,55.8201864 L89.8855529,59.4001864 C89.4118659,59.6891161 88.8702658,59.8478015 88.3155529,59.8603 L88.3155529,59.8603 Z M87.0655529,57.5701864 C87.0119934,58.134221 87.2588459,58.684892 87.7155529,59.0201864 C88.3204645,59.2688288 89.0115147,59.1814982 89.5355529,58.7901864 L95.6655529,55.2201864 C97.2812993,54.2091844 98.3205882,52.490646 98.4655529,50.5901864 C98.5260005,50.0301301 98.2817709,49.4806136 97.8255529,49.1501864 C97.2206414,48.901544 96.5295912,48.9888746 96.0055529,49.3801864 L89.8555529,52.9401864 C88.2436246,53.9534382 87.2082733,55.6716019 87.0655529,57.5701864 L87.0655529,57.5701864 Z" id="Shape" fill="#455A64"></path>
                <g id="Group" opacity="0.15" transform="translate(4.525553, 101.453721)" fill="#000000">
                    <path d="M2.15,18.7464658 L34.15,0.306465784 C35.33,-0.373534216 36.29,0.116465784 36.29,1.39646578 C36.1803583,2.8576064 35.3869989,4.18110789 34.15,4.96646578 L2.15,23.3964658 C0.96,24.0764658 0,23.5964658 0,22.3064658 C0.107113428,20.8445732 0.906004471,19.5217582 2.15,18.7464658 Z" id="Path"></path>
                </g>
                <path d="M0.505552937,135.850273 C0.327997408,135.849115 0.164329085,135.753959 0.0755529374,135.600186 C-0.0553693498,135.361785 0.023828535,135.062593 0.255552937,134.920186 L105.015553,74.4001864 C105.129108,74.3318349 105.265509,74.3124 105.393636,74.346316 C105.521763,74.3802319 105.630686,74.4646053 105.695553,74.5801864 C105.824717,74.8211404 105.740909,75.1210836 105.505553,75.2601864 L0.755552937,135.780186 C0.680906176,135.827573 0.593953549,135.85192 0.505552937,135.850273 L0.505552937,135.850273 Z" id="Path" fill="#E0E0E0"></path>
                <g id="Group" opacity="0.15" transform="translate(4.525553, 124.911765)" fill="#000000">
                    <path d="M2.15,13.8784209 L25.68,0.308420933 C26.87,-0.371579067 27.83,0.108420933 27.83,1.39842093 C27.7228866,2.86031354 26.9239955,4.18312847 25.68,4.95842093 L2.15,18.4884209 C0.96,19.1684209 0,18.6884209 0,17.3984209 C0.11942869,15.9510238 0.916812649,14.6455394 2.15,13.8784209 Z" id="Path"></path>
                </g>
                <g id="Group" opacity="0.15" transform="translate(0.505553, 138.693721)" fill="#000000">
                    <path d="M2.15,23.4164658 L42.15,0.306465784 C43.34,-0.373534216 44.3,0.116465784 44.3,1.39646578 C44.194396,2.86147282 43.395527,4.18796697 42.15,4.96646578 L2.15,28.0664658 C0.96,28.7564658 0,28.2664658 0,26.9864658 C0.105604004,25.5214587 0.904473033,24.1949646 2.15,23.4164658 Z" id="Path"></path>
                </g>
                <g id="Group" opacity="0.15" transform="translate(4.525553, 150.303721)" fill="#000000">
                    <path d="M2.15,25.7964658 L46.21,0.306465784 C47.4,-0.373534216 48.36,0.116465784 48.36,1.39646578 C48.2512328,2.86046806 47.4531595,4.18564095 46.21,4.96646578 L2.15,30.4464658 C0.96,31.1364658 0,30.6464658 0,29.3664658 C0.104009375,27.9009537 0.903280826,26.5737913 2.15,25.7964658 L2.15,25.7964658 Z" id="Path"></path>
                </g>
                <path d="M0.505552937,173.150434 C0.27875693,173.157365 0.0766999999,173.007893 0.0171975525,172.788924 C-0.0423048948,172.569955 0.056314592,172.338778 0.255552937,172.230186 L105.015553,111.750186 C105.129108,111.681835 105.265509,111.6624 105.393636,111.696316 C105.521763,111.730232 105.630686,111.814605 105.695553,111.930186 C105.824717,112.17114 105.740909,112.471084 105.505553,112.610186 L0.755552937,173.090186 C0.678265449,173.130022 0.592501488,173.150434 0.505552937,173.150434 Z" id="Path" fill="#E0E0E0"></path>
                <path d="M0.505552937,191.750434 C0.27875693,191.757365 0.0766999999,191.607893 0.0171975525,191.388924 C-0.0423048948,191.169955 0.056314592,190.938778 0.255552937,190.830186 L105.015553,130.400186 C105.167391,130.312656 105.354392,130.31278 105.506114,130.40051 C105.657836,130.488241 105.751114,130.65025 105.751114,130.82551 C105.751114,131.000771 105.657391,131.162656 105.505553,131.250186 L0.755552937,191.680186 C0.680906176,191.727573 0.593953549,191.75192 0.505552937,191.750434 L0.505552937,191.750434 Z" id="Path" fill="#E0E0E0"></path>
                <g id="Group" opacity="0.15" transform="translate(4.525553, 173.587050)" fill="#000000">
                    <path d="M2.15,21.1031365 L38.15,0.313136513 C39.34,-0.376863487 40.3,0.113136513 40.3,1.39313651 C40.194396,2.85814355 39.395527,4.1846377 38.15,4.96313651 L2.15,25.7531365 C0.96,26.4431365 0,25.9531365 0,24.6731365 C0.105604004,23.2081295 0.904473033,21.8816353 2.15,21.1031365 Z" id="Path"></path>
                </g>
                <path d="M75.5555529,136.260186 L96.9655529,123.920186 C98.1555529,123.240186 99.1155529,123.720186 99.1155529,125.010186 C99.0084395,126.472079 98.2095485,127.794894 96.9655529,128.570186 L75.5555529,140.920186 C74.3755529,141.600186 73.4055529,141.120186 73.4055529,139.830186 C73.5190008,138.367678 74.3159029,137.04445 75.5555529,136.260186 L75.5555529,136.260186 Z" id="Path" fill="#E0E0E0"></path>
                <path d="M101.265553,122.570186 C101.227583,122.549897 101.193683,122.522776 101.165553,122.490186 C101.12101,122.445423 101.098975,122.382992 101.105553,122.320186 L101.105553,121.650186 C101.096124,121.603996 101.096124,121.556377 101.105553,121.510186 C101.124138,121.473875 101.151671,121.4429 101.185553,121.420186 L101.265553,121.420186 L103.055553,122.250186 C103.098204,122.262421 103.136406,122.286731 103.165553,122.320186 C103.185411,122.375113 103.185411,122.43526 103.165553,122.490186 L103.165553,122.820186 C103.182585,122.892531 103.182585,122.967842 103.165553,123.040186 C103.13851,123.111711 103.101476,123.179046 103.055553,123.240186 L101.265553,126.120186 L101.265553,126.120186 L101.265553,126.120186 C101.240801,126.134477 101.210305,126.134477 101.185553,126.120186 C101.17222,126.088186 101.17222,126.052186 101.185553,126.020186 L101.185553,125.400186 C101.187881,125.319966 101.208397,125.241322 101.245553,125.170186 C101.274962,125.098384 101.308347,125.028276 101.345553,124.960186 L102.505553,123.100186 L101.265553,122.570186 Z" id="Path" fill="#5145BA"></path>
                <path d="M75.5555529,154.870186 L96.9655529,142.530186 C98.1555529,141.850186 99.1155529,142.330186 99.1155529,143.620186 C99.0084395,145.082079 98.2095485,146.404894 96.9655529,147.180186 L75.5555529,159.530186 C74.3755529,160.210186 73.4055529,159.720186 73.4055529,158.440186 C73.5190008,156.977678 74.3159029,155.65445 75.5555529,154.870186 L75.5555529,154.870186 Z" id="Path" fill="#E0E0E0"></path>
                <path d="M101.265553,141.180186 C101.227583,141.159897 101.193683,141.132776 101.165553,141.100186 C101.12101,141.055423 101.098975,140.992992 101.105553,140.930186 L101.105553,140.260186 C101.096124,140.213996 101.096124,140.166377 101.105553,140.120186 C101.124138,140.083875 101.151671,140.0529 101.185553,140.030186 L101.265553,140.030186 L103.055553,140.860186 C103.098204,140.872421 103.136406,140.896731 103.165553,140.930186 C103.185411,140.985113 103.185411,141.04526 103.165553,141.100186 L103.165553,141.400186 C103.182585,141.472531 103.182585,141.547842 103.165553,141.620186 C103.13851,141.691711 103.101476,141.759046 103.055553,141.820186 L101.265553,144.730186 L101.265553,144.730186 L101.265553,144.730186 C101.240801,144.744477 101.210305,144.744477 101.185553,144.730186 C101.17222,144.698186 101.17222,144.662186 101.185553,144.630186 L101.185553,143.960186 C101.186373,143.879757 101.206979,143.800767 101.245553,143.730186 C101.274962,143.658384 101.308347,143.588276 101.345553,143.520186 L102.505553,141.660186 L101.265553,141.180186 Z" id="Path" fill="#5145BA"></path>
            </g>
            <g id="apply-button" transform="translate(176.540000, 225.024748)" fill="#5145BA">
                <path d="M0,29.1412713 L0,20.1412713 C0.0828364073,18.629483 0.881418637,17.24775 2.15,16.4212713 L30.08,0.291271279 C31.27,-0.388728721 32.23,0.161271279 32.23,1.53127128 L32.23,10.5312713 C32.1503662,12.0440113 31.3510048,13.4270924 30.08,14.2512713 L2.15,30.3812713 C0.96,31.0712713 0,30.5112713 0,29.1412713 Z" id="Path"></path>
            </g>
            <path d="M184.039072,247.956268 C184.419916,247.729523 184.743338,247.476773 185.009338,247.198018 C185.275338,246.919263 185.477627,246.629896 185.616205,246.329916 C185.754783,246.029936 185.824072,245.733894 185.824072,245.44179 C185.824072,245.115998 185.708335,244.889246 185.476861,244.761534 C185.245387,244.633821 184.918739,244.644203 184.496916,244.792679 L183.852916,245.0151 C183.671864,245.077175 183.528601,245.095041 183.423127,245.068697 C183.317653,245.042353 183.264916,244.952655 183.264916,244.799602 C183.264916,244.604477 183.331416,244.412726 183.464416,244.224349 C183.597416,244.035971 183.780582,243.872322 184.013916,243.733401 C184.242582,243.597259 184.431819,243.541066 184.581627,243.564823 C184.731434,243.588579 184.8339,243.663381 184.889025,243.789227 L185.822759,242.946306 C185.736864,242.766883 185.614345,242.641257 185.455205,242.569427 C185.296064,242.497598 185.099134,242.485818 184.864416,242.53409 C184.629697,242.582362 184.35553,242.699856 184.041916,242.886575 C183.480093,243.22107 183.047278,243.608257 182.74347,244.048136 C182.439663,244.488015 182.287759,244.939866 182.287759,245.403689 C182.287759,245.644533 182.338856,245.825989 182.441049,245.948057 C182.543241,246.070126 182.685101,246.138737 182.866627,246.15389 C183.048153,246.169043 183.257442,246.136823 183.494494,246.05723 L184.134338,245.840127 C184.349952,245.766808 184.519137,245.746579 184.641892,245.779442 C184.764647,245.812305 184.826025,245.904824 184.826025,246.057001 C184.826025,246.238054 184.748314,246.430391 184.592892,246.634014 C184.43747,246.837637 184.234671,247.012501 183.984494,247.158606 C183.752108,247.291348 183.558442,247.346222 183.403494,247.323229 C183.248546,247.300237 183.142598,247.226797 183.08565,247.102911 L182.144916,247.941578 C182.179478,248.07223 182.250882,248.173236 182.359127,248.244597 C182.467371,248.315958 182.605257,248.355891 182.772783,248.364395 C182.940309,248.372899 183.131405,248.343818 183.346072,248.277151 C183.560739,248.210485 183.791739,248.103524 184.039072,247.956268 Z M186.27956,245.02076 C186.27956,245.391249 186.330201,245.664414 186.431482,245.840255 C186.532763,246.016095 186.681404,246.101906 186.877404,246.097686 C187.073404,246.093467 187.309982,246.008851 187.587138,245.843839 C187.854086,245.684905 188.086034,245.47845 188.282982,245.224474 C188.401151,245.072088 188.503694,244.906738 188.590613,244.728425 L188.613,244.678068 L188.65256,245.125514 L189.523295,244.607101 L189.523295,241.107101 L188.599404,241.657162 L188.599404,243.494006 C188.599404,243.781443 188.535474,244.038839 188.407615,244.266192 C188.279756,244.493546 188.096352,244.676932 187.857404,244.816352 C187.727612,244.890856 187.61348,244.928948 187.515006,244.930629 C187.416532,244.93231 187.339987,244.882672 187.285373,244.781714 C187.230758,244.680756 187.203451,244.51361 187.203451,244.280277 L187.203451,242.488277 L186.27956,243.038338 L186.27956,244.830338 L186.27956,245.02076 Z M192.131959,243.137969 C192.453959,242.946259 192.733266,242.7053 192.969881,242.415092 C193.206495,242.124884 193.389662,241.803024 193.519381,241.449512 C193.649099,241.095999 193.713959,240.733597 193.713959,240.362306 C193.713959,239.986056 193.649099,239.699572 193.519381,239.502856 C193.389662,239.306139 193.206495,239.203551 192.969881,239.195092 C192.733266,239.186633 192.453959,239.278259 192.131959,239.469969 C191.840729,239.64336 191.592685,239.865706 191.387826,240.137007 C191.305882,240.245528 191.231851,240.359306 191.165733,240.478343 L191.076,240.65466 L191.076381,238.782434 L190.152381,239.33256 L190.152381,244.23256 L191.030115,243.709979 L191.065,243.199209 L191.072491,243.207397 C191.130696,243.262944 191.196814,243.303625 191.270845,243.329438 L191.387826,243.357007 C191.592685,243.384372 191.840729,243.31136 192.131959,243.137969 Z M191.896802,242.429663 C191.736677,242.524997 191.594927,242.567483 191.471552,242.557119 C191.348177,242.546756 191.251472,242.488121 191.181435,242.381215 C191.111399,242.274309 191.076381,242.124861 191.076381,241.932871 C191.076381,241.740882 191.111472,241.550039 191.181654,241.360342 C191.251836,241.170646 191.349617,240.996784 191.474998,240.838756 C191.600378,240.680727 191.743313,240.553937 191.903802,240.458386 C192.070782,240.358971 192.218492,240.312663 192.346935,240.319462 C192.475378,240.326261 192.575729,240.382015 192.64799,240.486722 C192.72025,240.591429 192.756381,240.73985 192.756381,240.931986 C192.756381,241.124194 192.718828,241.316684 192.643724,241.509457 C192.56862,241.702229 192.466992,241.879001 192.338841,242.039773 C192.21069,242.200545 192.063344,242.330508 191.896802,242.429663 Z M195.078001,241.299971 L195.078001,239.463127 C195.078001,239.172846 195.13772,238.916554 195.257157,238.694251 C195.376595,238.471948 195.54835,238.2969 195.772423,238.169108 C195.894704,238.099075 196.000415,238.065997 196.089556,238.069873 C196.178697,238.073749 196.248697,238.126573 196.299556,238.228344 C196.350415,238.330116 196.375845,238.499091 196.375845,238.735268 L196.375845,240.527268 L197.299736,239.977207 L197.299736,238.140363 C197.299736,237.850082 197.359473,237.593779 197.478947,237.371454 C197.59842,237.14913 197.770157,236.974093 197.994157,236.846344 C198.116439,236.776311 198.22215,236.743233 198.31129,236.747109 C198.400431,236.750985 198.470431,236.803809 198.52129,236.90558 C198.57215,237.007352 198.597579,237.176327 198.597579,237.412504 L198.597579,239.204504 L199.521625,238.654364 L199.521625,236.652364 C199.523402,236.113678 199.416525,235.77924 199.200947,235.649063 C198.985368,235.518887 198.672246,235.576049 198.261579,235.820549 C198.016069,235.96672 197.800217,236.158925 197.614025,236.397165 C197.427832,236.635405 197.281543,236.90709 197.175157,237.212221 C197.086491,237.012063 196.946017,236.90832 196.753736,236.900992 C196.561454,236.893664 196.323454,236.97446 196.039736,237.143379 C195.830684,237.267843 195.643087,237.425507 195.476947,237.616371 C195.310806,237.807235 195.172684,238.02411 195.062579,238.266996 L195.024736,237.831684 L194.154001,238.350097 L194.154001,241.850097 L195.078001,241.299971 Z M200.605607,233.941975 C200.750274,233.855844 200.875107,233.729022 200.980107,233.561507 C201.085107,233.393993 201.137607,233.237903 201.137607,233.093236 C201.137607,232.948569 201.085107,232.854993 200.980107,232.812507 C200.875107,232.770022 200.750274,232.791844 200.605607,232.877975 C200.465607,232.961328 200.34194,233.087456 200.234607,233.256359 C200.127274,233.425263 200.073607,233.582048 200.073607,233.726714 C200.073607,233.871381 200.127274,233.964263 200.234607,234.005359 C200.34194,234.046456 200.465607,234.025328 200.605607,233.941975 Z M201.067607,237.733912 L201.067607,234.233912 L200.143607,234.784038 L200.143607,238.284038 L201.067607,237.733912 Z M203.196021,236.550708 C203.329459,236.471263 203.464774,236.364104 203.601967,236.22923 C203.73916,236.094356 203.865141,235.949806 203.979912,235.795578 L203.653756,235.298294 C203.593089,235.376414 203.53523,235.442125 203.480178,235.495428 C203.425126,235.54873 203.375178,235.588731 203.330334,235.61543 C203.200615,235.692661 203.103089,235.712918 203.037756,235.676201 C202.972423,235.639485 202.939756,235.5446 202.939756,235.391548 L202.939,233.903733 L203.8176,233.380527 L203.8176,232.596637 L202.939,233.119733 L202.939756,232.027283 L202.015865,232.577343 L202.015,233.669859 L201.4516,234.005293 L201.4516,234.789183 L202.015,234.453859 L202.015865,236.147343 C202.015865,236.451343 202.088883,236.65187 202.234919,236.748925 L202.314021,236.788829 C202.512792,236.861819 202.806792,236.782446 203.196021,236.550708 Z" id="Submit" fill="#FFFFFF"></path>
        </g>
    </g>
</svg>